<svg width="44" height="44" viewBox="0 0 44 44" fill="none" xmlns="http://www.w3.org/2000/svg">
<rect width="44" height="44" rx="12" fill="#383FE4"/>
<mask id="mask0_124_23" style="mask-type:alpha" maskUnits="userSpaceOnUse" x="4" y="4" width="36" height="36">
<rect x="4" y="4" width="36" height="36" fill="#D9D9D9"/>
</mask>
<g mask="url(#mask0_124_23)">
<path d="M16.8999 28.8995L9.99987 21.9995L16.8999 15.0995L18.9999 17.2745L14.2749 21.9995L18.9999 26.7245L16.8999 28.8995ZM11.4999 29.4995H14.4999V30.9995H29.4999V29.4995H32.4999V35.4995C32.4999 36.3245 32.2061 37.0307 31.6186 37.6182C31.0311 38.2057 30.3249 38.4995 29.4999 38.4995H14.4999C13.6749 38.4995 12.9686 38.2057 12.3811 37.6182C11.7936 37.0307 11.4999 36.3245 11.4999 35.4995V29.4995ZM14.4999 14.4995H11.4999V8.49948C11.4999 7.67448 11.7936 6.96823 12.3811 6.38073C12.9686 5.79324 13.6749 5.49949 14.4999 5.49949H29.4999C30.3249 5.49949 31.0311 5.79324 31.6186 6.38073C32.2061 6.96823 32.4999 7.67448 32.4999 8.49948V14.4995H29.4999V12.9995H14.4999V14.4995ZM14.4999 33.9995V35.4995H29.4999V33.9995H14.4999ZM14.4999 9.99948H29.4999V8.49948H14.4999V9.99948ZM27.0999 28.8995L24.9999 26.7245L29.7249 21.9995L24.9999 17.2745L27.0999 15.0995L33.9999 21.9995L27.0999 28.8995Z" fill="white"/>
</g>
</svg>
