<svg width="365" height="345" viewBox="0 0 365 345" fill="none" xmlns="http://www.w3.org/2000/svg">
<g clip-path="url(#clip0_130_6)">
<path d="M81.4339 116.989C86.1236 124.309 90.1339 129.927 93.7102 135.734C95.7244 139.17 97.963 143.034 91.9001 146.505C83.2301 135.655 73.9198 125.82 67.2009 114.019C64.292 109.079 65.5577 106.007 70.3158 102.892C72.0455 101.721 73.9997 100.978 75.7354 100.225C85.5031 96.3031 95.2708 92.3808 105.26 88.6777C108.516 87.3703 112.212 86.2924 114.453 90.3653C116.47 94.01 114.549 97.0509 111.521 98.9954C108.058 101.128 104.369 102.624 100.682 104.329C98.0783 105.458 95.2563 106.577 93.1077 108.981C94.4185 109.043 95.7293 109.105 97.0401 109.167C111.677 109.86 116.968 113.45 122.834 126.672C127.353 137.325 129.691 148.084 128.76 159.314C128.581 162.02 128.402 164.725 128.219 167.222C127.941 178.275 132.583 182.252 143.682 179.854C149.341 178.661 154.764 176.203 160.195 174.372C176.484 168.462 186.36 172.061 195.314 187.517C202.03 199.109 206.136 211.412 207.196 224.407C207.471 228.387 207.75 232.576 208.678 236.378C210.297 242.718 213.598 244.544 219.454 241.898C225.748 239.273 231.371 235.572 237.215 232.091C241.33 229.78 244.999 226.822 249.335 224.73C258.226 220.558 267.611 220.375 276.218 226.837C282.619 231.733 288.811 237.246 294.569 242.947C298.334 246.674 300.369 251.572 297.185 257.894C295.195 256.129 293.644 254.595 291.876 253.049C285.681 247.328 279.486 241.607 272.86 236.282C266.456 231.177 259.696 231.693 253.42 235.571C248.013 239.074 243.048 243.015 237.638 246.308C232.658 249.204 227.681 252.309 222.247 253.931C210.513 257.76 200.17 252.051 197.159 240.008C195.771 234.514 195.25 228.644 194.95 222.993C194.133 211.68 190.269 201.058 184.451 191.178C179.531 183.012 175.802 181.792 167.112 184.721C159.941 187.096 152.999 190.108 145.595 191.428C140.807 192.454 135.121 191.768 130.078 190.276C121.31 187.774 116.632 181.289 116.291 172.713C116.225 168.116 116.374 163.321 117.182 158.766C118.777 148.194 115.793 138.031 111.722 128.235C109.69 123.545 106.59 120.476 100.691 120.197C94.793 119.917 89.095 118.395 81.4339 116.989Z" fill="url(#paint0_linear_130_6)"/>
</g>
<defs>
<linearGradient id="paint0_linear_130_6" x1="66.4747" y1="166.766" x2="297.491" y2="163.449" gradientUnits="userSpaceOnUse">
<stop stop-color="#7E1F63"/>
<stop offset="1" stop-color="#E438B4"/>
</linearGradient>
<clipPath id="clip0_130_6">
<rect width="287" height="239" fill="white" transform="translate(256.24 344.066) rotate(-153.044)"/>
</clipPath>
</defs>
</svg>
