<svg width="373" height="361" viewBox="0 0 373 361" fill="none" xmlns="http://www.w3.org/2000/svg">
<g clip-path="url(#clip0_130_6)">
<path d="M283.102 117.54C274.435 118.225 267.59 119.113 260.783 119.529C256.804 119.686 252.34 119.839 252.137 112.855C265.793 110.324 278.856 106.75 292.431 106.388C298.159 106.151 300.271 108.716 300.775 114.381C300.992 116.458 300.726 118.532 300.572 120.417C299.426 130.881 298.28 141.344 296.837 151.899C296.455 155.387 295.663 159.154 291.014 159.211C286.849 159.272 285.073 156.144 284.786 152.556C284.537 148.498 284.958 144.538 285.193 140.483C285.424 137.655 285.767 134.638 284.66 131.61C283.988 132.737 283.315 133.864 282.642 134.991C275.131 147.572 269.47 150.546 255.044 149.485C243.519 148.449 232.929 145.438 223.464 139.323C221.162 137.89 218.86 136.456 216.745 135.118C207.129 129.662 201.432 131.881 198.314 142.8C196.699 148.353 196.31 154.294 195.364 159.947C192.898 177.098 185.068 184.111 167.216 184.721C153.827 185.179 141.04 183 129.081 177.808C125.441 176.175 121.616 174.446 117.825 173.472C111.47 171.911 108.304 173.961 107.876 180.373C107.224 187.161 107.837 193.864 108.152 200.66C108.25 205.378 109.129 210.008 108.93 214.818C108.418 224.626 104.154 232.989 94.398 237.533C87.0623 240.87 79.2817 243.732 71.5397 246.122C66.4776 247.685 61.1984 247.171 57.1244 241.382C59.6186 240.459 61.703 239.816 63.8995 238.984C71.8658 236.218 79.832 233.452 87.6511 230.119C95.1725 226.878 97.9051 220.673 97.4428 213.31C96.9035 206.89 95.7686 200.654 95.4149 194.33C95.2084 188.573 94.8162 182.72 95.9478 177.163C98.1026 165.01 108.013 158.58 120.053 161.602C125.553 162.967 130.976 165.276 136.101 167.676C146.463 172.288 157.652 173.888 169.108 173.415C178.629 172.926 181.463 170.213 182.977 161.168C184.263 153.725 184.88 146.182 187.206 139.03C188.558 134.324 191.844 129.633 195.537 125.889C201.878 119.336 209.802 118.268 217.526 122.01C221.611 124.119 225.769 126.511 229.405 129.371C237.977 135.761 248.346 137.921 258.905 138.95C263.998 139.368 268.167 138.081 271.194 133.011C274.221 127.941 278.25 123.633 283.102 117.54Z" fill="url(#paint0_linear_130_6)"/>
</g>
<defs>
<linearGradient id="paint0_linear_130_6" x1="246.255" y1="80.8804" x2="140.271" y2="286.178" gradientUnits="userSpaceOnUse">
<stop stop-color="#7E1F63"/>
<stop offset="1" stop-color="#E438B4"/>
</linearGradient>
<clipPath id="clip0_130_6">
<rect width="287" height="239" fill="white" transform="translate(0.43219 164.649) rotate(-34.9166)"/>
</clipPath>
</defs>
</svg>
