<svg width="44" height="44" viewBox="0 0 44 44" fill="none" xmlns="http://www.w3.org/2000/svg">
<rect width="44" height="44" rx="12" fill="#9345F5"/>
<mask id="mask0_124_28" style="mask-type:alpha" maskUnits="userSpaceOnUse" x="4" y="4" width="36" height="36">
<rect x="4" y="4" width="36" height="36" fill="#D9D9D9"/>
</mask>
<g mask="url(#mask0_124_28)">
<path d="M21.55 31C19.15 30.875 17.125 29.95 15.475 28.225C13.825 26.5 13 24.425 13 22C13 19.5 13.875 17.375 15.625 15.625C17.375 13.875 19.5 13 22 13C24.425 13 26.5 13.825 28.225 15.475C29.95 17.125 30.875 19.15 31 21.55L27.85 20.6125C27.525 19.2625 26.825 18.1563 25.75 17.2938C24.675 16.4313 23.425 16 22 16C20.35 16 18.9375 16.5875 17.7625 17.7625C16.5875 18.9375 16 20.35 16 22C16 23.425 16.4313 24.675 17.2938 25.75C18.1563 26.825 19.2625 27.525 20.6125 27.85L21.55 31ZM23.35 36.925C23.125 36.975 22.9 37 22.675 37H22C19.925 37 17.975 36.6062 16.15 35.8187C14.325 35.0312 12.7375 33.9625 11.3875 32.6125C10.0375 31.2625 8.96875 29.675 8.18125 27.85C7.39375 26.025 7 24.075 7 22C7 19.925 7.39375 17.975 8.18125 16.15C8.96875 14.325 10.0375 12.7375 11.3875 11.3875C12.7375 10.0375 14.325 8.96875 16.15 8.18125C17.975 7.39375 19.925 7 22 7C24.075 7 26.025 7.39375 27.85 8.18125C29.675 8.96875 31.2625 10.0375 32.6125 11.3875C33.9625 12.7375 35.0312 14.325 35.8187 16.15C36.6062 17.975 37 19.925 37 22V22.675C37 22.9 36.975 23.125 36.925 23.35L34 22.45V22C34 18.65 32.8375 15.8125 30.5125 13.4875C28.1875 11.1625 25.35 10 22 10C18.65 10 15.8125 11.1625 13.4875 13.4875C11.1625 15.8125 10 18.65 10 22C10 25.35 11.1625 28.1875 13.4875 30.5125C15.8125 32.8375 18.65 34 22 34H22.45L23.35 36.925ZM34.7875 37.75L28.375 31.3375L26.5 37L22 22L37 26.5L31.3375 28.375L37.75 34.7875L34.7875 37.75Z" fill="white"/>
</g>
</svg>
