<svg width="121" height="36" viewBox="0 0 121 36" fill="none" xmlns="http://www.w3.org/2000/svg">
<path fill-rule="evenodd" clip-rule="evenodd" d="M19.8075 8.25034H1.85257C0.82923 8.25034 0 9.0832 0 10.1106V28.1397C0 29.1673 0.829426 29.9999 1.85257 29.9999H19.8075C20.8309 29.9999 21.6601 29.1671 21.6601 28.1397V10.1106C21.6601 9.08299 20.8306 8.25034 19.8075 8.25034ZM11.3813 20.2332C9.76205 20.2332 9.02622 18.662 9.02622 17.2056C9.02622 14.9123 10.2637 14.0958 11.4212 14.0958C12.8418 14.0958 13.7962 15.3363 13.7962 17.1842C13.7962 19.2918 12.5821 20.2332 11.3813 20.2332ZM16.8471 17.1437C16.8471 13.7067 14.895 11.3977 11.9916 11.3977C10.3025 11.3977 9.32479 12.167 8.85307 12.6979C8.79648 12.2401 8.49906 11.6463 7.33707 11.6463H4.81336V14.323H5.84771C6.02306 14.323 6.07966 14.3792 6.07966 14.5569V26.7799H9.08727V22.1923C9.08727 22.0686 9.08504 21.9528 9.08172 21.8493C9.55114 22.2857 10.449 22.8885 11.8507 22.8885C14.7906 22.8885 16.8471 20.5267 16.8471 17.1437Z" fill="white"/>
<path fill-rule="evenodd" clip-rule="evenodd" d="M29.6078 14.1071C30.1405 13.5081 31.245 12.6399 33.153 12.6399C36.4324 12.6399 38.6375 15.2456 38.6375 19.1244C38.6375 22.9423 36.3146 25.6077 32.9937 25.6077C31.4104 25.6077 30.3963 24.9273 29.866 24.4349C29.8698 24.5517 29.8723 24.6824 29.8723 24.822V29.9992H26.475V16.2052C26.475 16.0046 26.411 15.9412 26.213 15.9412H25.0446V12.9204H27.8953C29.2078 12.9204 29.5438 13.5906 29.6078 14.1071ZM32.5086 15.6848C31.2011 15.6848 29.8033 16.6063 29.8033 19.1942C29.8033 20.8379 30.6345 22.611 32.4635 22.611C33.8199 22.611 35.1913 21.5487 35.1913 19.1702C35.1913 17.0848 34.1132 15.6848 32.5086 15.6848Z" fill="white"/>
<path d="M43.1998 22.0668V14.7573C43.1998 13.5223 42.6119 12.9207 41.4072 12.9207H38.3709V15.9415H39.5405C39.7374 15.9415 39.8013 16.0063 39.8013 16.2055V23.4896C39.8013 24.7436 40.3704 25.3262 41.5902 25.3262H44.6302V22.3321H43.4605C43.2725 22.3321 43.1998 22.2559 43.1998 22.0668Z" fill="white"/>
<path fill-rule="evenodd" clip-rule="evenodd" d="M48.528 14.1071C49.0633 13.5081 50.1653 12.6399 52.0758 12.6399C55.354 12.6399 57.5578 15.2456 57.5578 19.1244C57.5578 22.9423 55.2374 25.6077 51.9153 25.6077C50.3333 25.6077 49.3153 24.9273 48.7876 24.4349C48.7913 24.5517 48.7951 24.6824 48.7951 24.822V29.9992H45.3953V16.2052C45.3953 16.0046 45.3314 15.9412 45.1345 15.9412H43.9662V12.9204H46.8181C48.1307 12.9204 48.4654 13.5906 48.528 14.1071ZM48.7236 19.1942C48.7236 20.8379 49.5585 22.611 51.3825 22.611C52.7427 22.611 54.1129 21.5487 54.1129 19.1702C54.1129 17.0848 53.0348 15.6848 51.4302 15.6848C50.1214 15.6848 48.7236 16.6063 48.7236 19.1942Z" fill="white"/>
<path fill-rule="evenodd" clip-rule="evenodd" d="M57.7312 19.125C57.7312 15.3072 60.2911 12.6405 63.9516 12.6405C67.216 12.6405 69.4098 15.0114 69.4098 18.5399C69.4098 18.8978 69.3434 19.6302 69.3371 19.6606L69.3183 19.8865H61.2613C61.556 21.5366 62.802 22.5887 64.5044 22.5887C66.2176 22.5887 67.5285 21.4203 67.6298 21.33C67.6334 21.3268 67.6359 21.3246 67.6359 21.3246L67.8553 21.1139L69.3358 23.6004L69.1992 23.7374C69.1185 23.8165 67.2898 25.6083 64.2989 25.6083C60.4928 25.6083 57.7312 22.8807 57.7312 19.125ZM63.9516 15.4265C62.6779 15.4265 61.7565 16.1169 61.3879 17.3342H65.901C65.7618 16.2147 64.9745 15.4265 63.9516 15.4265Z" fill="white"/>
<path fill-rule="evenodd" clip-rule="evenodd" d="M81.7676 10.0865V22.0668C81.7676 22.2559 81.8403 22.3321 82.0283 22.3321H83.1728V25.3262H80.2293C78.9582 25.3262 78.616 24.6484 78.547 24.1128C78.0192 24.7271 76.9386 25.6079 75.0645 25.6079C71.785 25.6079 69.5812 23.0035 69.5812 19.1247C69.5812 15.3068 71.8815 12.6402 75.1786 12.6402C76.8647 12.6402 77.8438 13.2431 78.3452 13.7013V11.536C78.3452 11.3354 78.2812 11.272 78.0844 11.272H76.9148V8.24991H79.951C81.172 8.24991 81.7676 8.85153 81.7676 10.0865ZM73.0474 19.1247C73.0474 21.2418 74.0929 22.6113 75.7088 22.6113C77.0163 22.6113 78.4154 21.6911 78.4154 19.1019C78.4154 17.3998 77.5918 15.6851 75.7552 15.6851C74.1356 15.6851 73.0474 17.066 73.0474 19.1247Z" fill="white"/>
<path d="M90.733 12.7568C89.3189 12.7568 88.0177 13.5831 87.2454 14.8993V14.6162C87.2454 13.4917 86.6324 12.9206 85.4289 12.9206H82.508V15.9413H83.6764C83.8732 15.9413 83.9384 16.0048 83.9384 16.2053V25.3261H87.3357V20.3621C87.3357 19.7084 87.4184 19.0789 87.5789 18.4963C88.0904 16.7841 89.4493 16.1749 90.5487 16.1749C90.9386 16.1749 91.2219 16.2168 91.2269 16.218L91.5102 16.2612V12.8419L91.3034 12.8063C91.2934 12.8038 91.005 12.7568 90.733 12.7568Z" fill="white"/>
<path d="M96.3462 22.0669V14.7573C96.3462 13.5224 95.7607 12.9207 94.5558 12.9207H91.8095V15.9415H92.687C92.8853 15.9415 92.9476 16.0063 92.9476 16.2056V23.4896C92.9476 24.7436 93.5182 25.3262 94.7406 25.3262H97.7778V22.3321H96.6068C96.4193 22.3321 96.3462 22.256 96.3462 22.0669Z" fill="white"/>
<path d="M109.173 12.9207H107.36C106.301 12.9207 105.733 13.2926 105.396 14.2052L103.181 20.4689C103.105 20.7012 103.033 20.9613 102.972 21.2114C102.908 20.9613 102.832 20.6973 102.748 20.4651L100.532 14.2039C100.192 13.2812 99.6435 12.9207 98.5706 12.9207H96.6422V15.9415H97.1424C97.4084 15.9415 97.4937 16.0329 97.5566 16.2005L100.985 25.3263H104.806L108.234 16.2005C108.297 16.0329 108.385 15.9415 108.651 15.9415H109.173V12.9207Z" fill="white"/>
<path fill-rule="evenodd" clip-rule="evenodd" d="M108.805 19.125C108.805 15.3072 111.364 12.6405 115.023 12.6405C118.29 12.6405 120.485 15.0114 120.485 18.5399C120.485 18.8978 120.416 19.6302 120.412 19.6606L120.394 19.8865H112.334C112.628 21.5366 113.874 22.5887 115.578 22.5887C117.346 22.5887 118.696 21.336 118.707 21.3246L118.933 21.1139L120.41 23.6004L120.272 23.7374C120.195 23.8136 118.365 25.6083 115.37 25.6083C111.564 25.6083 108.805 22.8807 108.805 19.125ZM115.023 15.4265C113.751 15.4265 112.833 16.1169 112.46 17.3342H116.973C116.834 16.2147 116.049 15.4265 115.023 15.4265Z" fill="white"/>
<path d="M42.9678 8.25073H39.9391V11.4809H42.9678V8.25073Z" fill="white"/>
<path d="M96.1157 8.25073H93.0859V11.4809H96.1157V8.25073Z" fill="white"/>
</svg>
