<svg width="123" height="36" viewBox="0 0 123 36" fill="none" xmlns="http://www.w3.org/2000/svg">
<path d="M36.0538 12.0534H41.2109C44.0676 12.0534 45.5507 13.2319 45.5507 15.4446V15.5548C45.5914 16.2033 45.3994 16.8449 45.0097 17.363C44.62 17.8811 44.0585 18.2413 43.4272 18.378C44.1832 18.445 44.8825 18.8093 45.3731 19.3918C45.8638 19.9744 46.1063 20.7282 46.0479 21.4895V21.5658C46.0479 23.982 44.4721 25.2537 41.4469 25.2537H36.0538V12.0534ZM40.7306 17.4709C42.1632 17.4709 42.7277 16.9537 42.7277 15.7753V15.699C42.7277 14.5968 42.1042 14.0966 40.7138 14.0966H38.9526V17.4878L40.7306 17.4709ZM40.9834 23.1766C42.4497 23.1766 43.1154 22.5069 43.1154 21.3114V21.2351C43.1154 20.0143 42.4497 19.3954 40.8402 19.3954H38.9526V23.1851L40.9834 23.1766Z" fill="white"/>
<path d="M46.8232 22.5662C46.8232 20.3111 48.8709 19.4633 51.8118 19.4633H52.8904V19.0817C52.8904 17.9372 52.5449 17.3098 51.3315 17.3098C51.1351 17.2864 50.936 17.3036 50.7464 17.3605C50.5569 17.4173 50.3809 17.5126 50.2293 17.6405C50.0778 17.7684 49.9538 17.9261 49.8651 18.104C49.7764 18.2819 49.7249 18.4761 49.7136 18.6748H47.1856C47.3541 16.3857 49.149 15.3684 51.5 15.3684C53.8511 15.3684 55.5111 16.3264 55.5111 18.9461V25.2368H52.9242V24.0753C52.5995 24.5356 52.1618 24.9032 51.6537 25.1425C51.1456 25.3817 50.5846 25.4843 50.0254 25.4403C48.2895 25.4403 46.8232 24.5925 46.8232 22.5662ZM52.8904 21.8625V21.0147H51.8624C50.3203 21.0147 49.4271 21.3539 49.4271 22.3797C49.4271 23.0834 49.8484 23.5497 50.8175 23.5497C51.9888 23.5836 52.8904 22.9308 52.8904 21.8625Z" fill="white"/>
<path d="M56.6317 22.2101H59.1092C59.2187 23.0579 59.64 23.5836 60.7945 23.5836C61.8225 23.5836 62.3029 23.1936 62.3029 22.5238C62.3029 21.8541 61.7299 21.5828 60.3563 21.3878C57.8283 20.9978 56.8171 20.2602 56.8171 18.3781C56.8171 16.4959 58.6541 15.3684 60.6091 15.3684C62.7411 15.3684 64.3337 16.1483 64.5696 18.3611H62.1343C61.9911 17.5642 61.5445 17.1996 60.6344 17.1996C59.7243 17.1996 59.2777 17.6066 59.2777 18.1915C59.2777 18.7765 59.7327 19.0394 61.1231 19.2428C63.5247 19.5904 64.8477 20.2008 64.8477 22.2695C64.8477 24.3381 63.3478 25.4403 60.8113 25.4403C58.2749 25.4403 56.7244 24.2957 56.6317 22.2101Z" fill="white"/>
<path d="M65.5303 20.5315V20.3873C65.4984 19.7248 65.6035 19.0627 65.8392 18.4432C66.0748 17.8237 66.4358 17.2602 66.8992 16.7883C67.3627 16.3165 67.9185 15.9466 68.5314 15.7022C69.1443 15.4578 69.801 15.3441 70.4599 15.3683C72.9374 15.3683 75.1367 16.8266 75.1367 20.2771V21.0147H68.2521C68.3195 22.6171 69.1875 23.5581 70.6284 23.5581C71.8587 23.5581 72.4655 23.024 72.634 22.2101H75.162C74.8502 24.2957 73.1986 25.4572 70.5779 25.4572C67.637 25.4403 65.5303 23.6175 65.5303 20.5315ZM72.5497 19.37C72.4655 17.9117 71.7239 17.2505 70.4599 17.2505C69.8909 17.2478 69.3429 17.4671 68.9312 17.8623C68.5195 18.2575 68.2761 18.7979 68.2521 19.37H72.5497Z" fill="white"/>
<path d="M75.8361 20.5314V20.3873C75.804 19.7232 75.9097 19.0597 76.1463 18.439C76.383 17.8182 76.7455 17.2539 77.2108 16.7818C77.676 16.3097 78.2339 15.9402 78.8488 15.6968C79.4638 15.4535 80.1223 15.3416 80.7826 15.3683C83.0072 15.3683 85.0549 16.3432 85.2993 19.1156H82.7713C82.7545 18.8776 82.6903 18.6455 82.5826 18.433C82.4749 18.2204 82.3258 18.0319 82.1442 17.8785C81.9626 17.725 81.7523 17.6099 81.5256 17.5399C81.2989 17.4698 81.0606 17.4464 80.8247 17.4708C79.4512 17.4708 78.5327 18.5051 78.5327 20.3533V20.4975C78.5327 22.439 79.3753 23.4309 80.8837 23.4309C81.1404 23.4457 81.3974 23.4091 81.6398 23.323C81.8822 23.237 82.1052 23.1033 82.2957 22.9297C82.4863 22.7561 82.6407 22.5461 82.7498 22.3119C82.8589 22.0778 82.9207 21.8241 82.9314 21.5657H85.333C85.1898 23.8548 83.5381 25.4402 80.7489 25.4402C77.9597 25.4402 75.8361 23.6852 75.8361 20.5314Z" fill="white"/>
<path d="M85.9483 22.5662C85.9483 20.311 87.996 19.4632 90.9285 19.4632H92.0155V19.0817C92.0155 17.9372 91.6616 17.3098 90.4566 17.3098C90.2588 17.2838 90.0579 17.2992 89.8664 17.3549C89.6748 17.4106 89.4968 17.5055 89.3433 17.6336C89.1899 17.7617 89.0644 17.9203 88.9746 18.0995C88.8849 18.2786 88.8329 18.4745 88.8218 18.6748H86.2938C86.4623 16.3857 88.2572 15.3683 90.5998 15.3683C92.9424 15.3683 94.6193 16.3264 94.6193 18.9461V25.2368H92.0323V24.0753C91.7077 24.5355 91.27 24.9032 90.7619 25.1424C90.2538 25.3817 89.6928 25.4843 89.1336 25.4403C87.4482 25.4403 85.9483 24.5925 85.9483 22.5662ZM92.0155 21.8625V21.0147H91.0043C89.4622 21.0147 88.5606 21.3538 88.5606 22.3797C88.5606 23.0834 88.9903 23.5497 89.9594 23.5497C91.1476 23.5836 92.0492 22.9308 92.0492 21.8625H92.0155Z" fill="white"/>
<path d="M96.4899 15.5548H99.1443V17.03C99.4337 16.5059 99.8596 16.071 100.376 15.7723C100.893 15.4735 101.481 15.3221 102.077 15.3344C102.645 15.2886 103.214 15.429 103.696 15.7345C104.179 16.0401 104.551 16.4945 104.756 17.03C105.11 16.4982 105.591 16.0643 106.155 15.768C106.719 15.4718 107.348 15.3227 107.984 15.3344C109.762 15.3344 111.135 16.462 111.135 19.0223V25.2028H108.498V19.353C108.498 18.1152 107.95 17.5641 106.989 17.5641C106.734 17.5529 106.479 17.5973 106.242 17.6943C106.005 17.7913 105.792 17.9386 105.617 18.1261C105.441 18.3136 105.309 18.537 105.227 18.7809C105.145 19.0248 105.117 19.2836 105.144 19.5395V25.2367H102.498V19.353C102.498 18.1152 101.933 17.5641 100.998 17.5641C100.742 17.5517 100.486 17.5951 100.248 17.6916C100.01 17.788 99.7957 17.9351 99.6196 18.1228C99.4435 18.3104 99.3098 18.5342 99.2277 18.7788C99.1457 19.0233 99.1172 19.2828 99.1443 19.5395V25.2367H96.4899V15.5548Z" fill="white"/>
<path d="M112.956 15.5548H115.619V17.0724C115.936 16.5416 116.384 16.1025 116.92 15.7979C117.456 15.4934 118.062 15.3337 118.677 15.3344C121.029 15.3344 122.891 17.0893 122.891 20.2771V20.4297C122.891 23.6175 121.096 25.4063 118.677 25.4063C118.062 25.4317 117.452 25.2871 116.913 24.9882C116.373 24.6893 115.926 24.2475 115.619 23.7107V28.5262H112.956V15.5548ZM120.161 20.3025C120.161 18.3441 119.208 17.3861 117.869 17.3861C116.529 17.3861 115.526 18.3611 115.526 20.3025V20.4467C115.526 22.3797 116.444 23.3207 117.894 23.3207C119.343 23.3207 120.161 22.3373 120.161 20.4806V20.3025Z" fill="white"/>
<path fill-rule="evenodd" clip-rule="evenodd" d="M16.3524 7.44558C8.87497 7.44558 4.97543 13.8177 2.79208 20.0458C2.52815 20.7986 1.70756 21.1937 0.959248 20.9282C0.424021 20.7382 0.0707323 20.2618 0.00950388 19.7304C-0.0148724 19.5188 0.00704288 19.2985 0.0821987 19.0842C2.29757 12.7647 6.82471 4.55457 16.3524 4.55457C21.3324 4.55457 24.897 7.86929 27.2024 11.8515C29.5138 15.8442 30.7462 20.7881 31.0239 24.7798C31.0439 25.0667 30.9783 25.3531 30.8356 25.6023C29.5005 27.934 27.2793 29.4535 24.7475 30.3842C22.2219 31.3126 19.2964 31.6918 16.3639 31.6928C13.8725 31.7319 11.4019 31.2303 9.12042 30.222C6.83538 29.2121 4.79398 27.7178 3.13574 25.8411C2.78297 25.4419 2.6778 24.8795 2.86224 24.3786L2.86333 24.3756L2.86539 24.3701L2.87241 24.3512L2.89785 24.2837C2.91978 24.2259 2.95158 24.1431 2.99255 24.0388C3.07443 23.8303 3.19328 23.535 3.34354 23.1818C3.64273 22.4784 4.07257 21.5303 4.58891 20.5732C5.09846 19.6286 5.72504 18.6131 6.42968 17.8131C7.07203 17.0837 8.0705 16.1952 9.34847 16.1865L9.35821 16.1864C10.2613 16.1864 11.0031 16.6024 11.537 17.0023C12.0752 17.4054 12.564 17.9177 12.9557 18.3348C13.0007 18.3826 13.0444 18.4292 13.0869 18.4745C13.4516 18.8637 13.7306 19.1613 13.9957 19.3841C14.0255 19.4092 14.0528 19.4312 14.0778 19.4507C14.164 19.3621 14.2668 19.2459 14.3852 19.0983C14.8063 18.573 15.2793 17.8332 15.737 17.0411C16.1887 16.2594 16.5998 15.472 16.8995 14.8765C17.0489 14.5797 17.1694 14.3329 17.2521 14.1612C17.2935 14.0754 17.3253 14.0085 17.3465 13.9636L17.3703 13.9133L17.3759 13.9013L17.3771 13.8988C17.7139 13.176 18.5695 12.8644 19.2879 13.2032C20.0064 13.542 20.3158 14.4027 19.979 15.1256L19.9759 15.1322L19.9685 15.1481L19.9408 15.2067C19.9169 15.2572 19.8822 15.3302 19.8377 15.4224C19.7489 15.6068 19.621 15.8687 19.4632 16.1823C19.1485 16.8076 18.7101 17.648 18.2212 18.4941C17.7383 19.3298 17.1795 20.2178 16.6218 20.9134C16.3452 21.2583 16.0317 21.6034 15.6926 21.8747C15.393 22.1145 14.8643 22.4687 14.1867 22.4687C13.2907 22.4687 12.5846 21.9653 12.1531 21.6025C11.7464 21.2606 11.3401 20.826 10.9988 20.461C10.9538 20.4128 10.9099 20.3658 10.8672 20.3204C10.4626 19.8896 10.1319 19.5541 9.82117 19.3214C9.54881 19.1174 9.40976 19.0838 9.36982 19.0785C9.36982 19.0785 9.36695 19.0795 9.36444 19.0804C9.32051 19.096 9.05659 19.1896 8.58033 19.7304C8.08653 20.2911 7.58131 21.0867 7.11442 21.9522C6.65432 22.8051 6.26308 23.6661 5.98531 24.3192C5.94952 24.4033 5.91571 24.4838 5.88399 24.5601C7.14848 25.8277 8.63717 26.8507 10.2761 27.5751C12.1824 28.4176 14.2471 28.8361 16.329 28.802L16.3524 28.8018C19.0703 28.8018 21.643 28.4475 23.7614 27.6688C25.7103 26.9523 27.197 25.9082 28.1211 24.5221C27.808 20.9697 26.6833 16.699 24.7194 13.3066C22.6639 9.75605 19.8748 7.44558 16.3524 7.44558ZM13.8416 19.6561C13.8416 19.6561 13.8479 19.6513 13.8599 19.6451C13.8475 19.6536 13.8416 19.6561 13.8416 19.6561Z" fill="white"/>
</svg>
