<svg width="106" height="19" viewBox="0 0 106 19" fill="none" xmlns="http://www.w3.org/2000/svg">
<path d="M104.909 5.63873C104.909 5.23331 104.623 4.96303 104.153 4.96303L103.23 4.97992L103.247 7.04082H103.75V6.33133H104.053L104.489 7.04082H105.077L104.556 6.24686C104.664 6.18674 104.753 6.09853 104.815 5.99151C104.877 5.88449 104.91 5.76262 104.909 5.63873ZM104.053 5.90901H103.734V5.38534H104.103C104.169 5.37801 104.236 5.39674 104.289 5.43763C104.343 5.47852 104.378 5.53844 104.388 5.60495V5.62184C104.387 5.6636 104.377 5.70462 104.359 5.74226C104.341 5.7799 104.315 5.81333 104.284 5.84039C104.252 5.86744 104.215 5.88753 104.175 5.89935C104.136 5.91117 104.094 5.91446 104.053 5.90901ZM29.5926 15.1661C28.7366 15.1661 28.1491 14.4904 28.1491 13.4938V8.94968H31.674V5.74009H28.1575L28.1239 2.05751H24.2297L24.2633 14.3215C24.2633 16.8047 25.9083 18.494 28.3253 18.494C29.601 18.494 30.8096 18.3082 31.7664 17.869V14.7438C31.0869 15.0611 30.3406 15.2061 29.5926 15.1661ZM38.8918 5.53738C35.2661 5.53738 32.4797 8.37533 32.4797 12.1424C32.4797 15.8756 35.2661 18.4771 39.11 18.4771C41.2753 18.4771 43.3063 17.7 44.5484 16.0952L41.5606 14.7269C40.9564 15.2844 40.0332 15.504 39.2107 15.504C37.8678 15.504 36.525 14.8114 36.3404 13.3924H45.2534C45.3874 12.8854 45.4551 12.363 45.4548 11.8383C45.4548 7.96991 42.6517 5.53738 38.9001 5.53738H38.8918ZM36.3404 10.9092C36.4579 9.21996 37.6664 8.4429 38.9925 8.4429C40.4864 8.4429 41.611 9.28753 41.611 10.7403V10.9092H36.3404ZM20.5285 15.1661C19.6725 15.1661 19.085 14.4904 19.085 13.4938V8.94968H22.6099V5.74009H19.0934L19.0598 2.05751H15.1656L15.1992 14.3215C15.1992 16.8047 16.8441 18.494 19.2612 18.494C20.5369 18.494 21.7455 18.3082 22.7022 17.869V14.7438C22.0233 15.0627 21.2766 15.2077 20.5285 15.1661ZM6.84844 5.53738C3.50815 5.53738 0 7.75031 0 12.2099C0 15.9263 2.48424 18.5278 5.62311 18.5278C7.41914 18.5278 8.77876 17.8014 9.66839 16.5176L9.78588 18.3082H13.5542V12.362C13.5542 7.83477 10.2391 5.53738 6.84844 5.53738ZM6.84844 15.0986C5.15312 15.0986 3.92778 13.8316 3.92778 12.041C3.92778 10.2504 5.13633 8.98346 6.84844 8.98346C8.42627 8.98346 9.73553 10.3687 9.73553 12.041C9.73553 13.7134 8.42627 15.0986 6.84844 15.0986ZM103.969 4.03394C102.743 4.05083 101.954 4.84478 101.971 6.02726C101.988 7.20974 102.794 7.9868 104.019 7.96991C105.211 7.95302 106.017 7.15907 106 5.95969C105.983 4.76032 105.177 4.01704 103.969 4.03394ZM104.019 7.63206C103.062 7.64895 102.408 7.00703 102.408 6.02726C102.408 5.04749 103.029 4.38868 103.985 4.37179C104.942 4.35489 105.58 4.99681 105.597 5.99348C105.597 6.95635 104.959 7.61516 104.027 7.63206H104.019ZM84.9341 5.75698L82.2148 13.6965L79.462 5.75698H75.2321L80.3013 18.2913H84.0948L89.164 5.75698H84.9341ZM95.0221 5.53738C91.3964 5.53738 88.6101 8.37533 88.6101 12.1424C88.6101 15.8756 91.3965 18.4771 95.2403 18.4771C97.4056 18.4771 99.4367 17.7 100.679 16.0952L97.691 14.7269C97.0867 15.2844 96.1635 15.504 95.341 15.504C93.9982 15.504 92.6554 14.8114 92.4707 13.3924H101.384C101.518 12.8854 101.585 12.363 101.585 11.8383C101.585 7.96991 98.782 5.53738 95.0221 5.53738ZM97.7413 10.9092H92.4707C92.5882 9.21996 93.7968 8.4429 95.1228 8.4429C96.6167 8.4429 97.7413 9.28753 97.7413 10.7403V10.9092ZM72.2275 0.25C70.8511 0.25 69.8104 1.17909 69.8104 2.47982C69.8104 3.78055 70.8511 4.74343 72.2275 4.74343C73.6039 4.74343 74.6446 3.79744 74.6446 2.47982C74.6446 1.1622 73.6207 0.25 72.2275 0.25ZM54.5525 5.52049C53.7655 5.50769 52.9886 5.7001 52.2974 6.079C51.6062 6.4579 51.0241 7.01039 50.608 7.68273L50.4737 5.75698H46.7137V18.2913H50.608V11.7201C50.6919 10.149 51.9508 8.94968 53.3272 8.94968C54.8714 8.94968 55.5764 10.1153 55.5764 11.5849V18.2744H59.4539V10.9768C59.4539 7.80098 57.5319 5.52049 54.5525 5.52049ZM66.4366 15.1661C65.5805 15.1661 64.993 14.4904 64.993 13.4938V8.94968H68.518V5.74009H64.993L64.9595 2.05751H61.0653L61.0988 14.3215C61.0988 16.8047 62.7438 18.494 65.1609 18.494C66.4366 18.494 67.6451 18.3082 68.6019 17.869V14.7438C67.9255 15.0613 67.1818 15.2063 66.4366 15.1661ZM70.2636 5.75698V18.2913H74.1914V5.75698C73.6091 6.14532 72.9261 6.35243 72.2275 6.35243C71.529 6.35243 70.8459 6.14532 70.2636 5.75698Z" fill="white"/>
</svg>
