<svg width="151" height="36" viewBox="0 0 151 36" fill="none" xmlns="http://www.w3.org/2000/svg">
<path d="M9.01828 24.7323V22.5229H2.49223V11.6815H0V24.7323H9.01828ZM15.2874 24.3212C15.827 23.9102 16.2381 23.3707 16.5207 22.7027V24.7323H18.9101V18.4381C18.9101 17.7702 18.7559 17.1536 18.422 16.6398C18.088 16.1259 17.5997 15.7149 16.9831 15.4323C16.3665 15.1497 15.6214 14.9956 14.7735 14.9956C14.311 14.9956 13.8486 15.0469 13.4118 15.124C12.975 15.2011 12.5639 15.3295 12.1785 15.4837C11.7932 15.6378 11.4334 15.8177 11.1251 16.0232L11.2022 18.2583C11.7932 17.8729 12.3583 17.5903 12.9236 17.3848C13.4889 17.1793 14.1055 17.0765 14.7993 17.0765C15.3388 17.0765 15.7755 17.205 16.0839 17.4619C16.3922 17.7188 16.5463 18.0527 16.5463 18.4638V19.106H14.3881C13.1035 19.106 12.1014 19.3629 11.3563 19.9024C10.6113 20.4419 10.2516 21.187 10.2516 22.1376C10.2516 22.6771 10.3801 23.1395 10.6113 23.5762C10.8682 24.0129 11.2022 24.3469 11.6647 24.5781C12.1271 24.835 12.6667 24.9378 13.2577 24.9378C14.0798 24.9378 14.7478 24.7323 15.2874 24.3212ZM13.1292 22.7027C12.8722 22.4972 12.7181 22.2146 12.7181 21.855C12.7181 21.4182 12.8979 21.0843 13.2833 20.8531C13.6431 20.6217 14.2083 20.4933 14.9277 20.4933H16.4693V20.8531C16.4693 21.1613 16.3922 21.4696 16.2124 21.8036C16.0325 22.1376 15.7755 22.4202 15.4159 22.6514C15.0562 22.8826 14.6451 23.011 14.1825 23.011C13.7458 23.011 13.3861 22.9083 13.1292 22.7027ZM26.5153 24.2955C27.0806 23.8074 27.4917 23.1395 27.7486 22.3174V24.7323H30.1637V15.2782H27.7486V19.6969C27.7486 20.3392 27.6457 20.9044 27.4402 21.3926C27.2347 21.8807 26.9521 22.2917 26.5667 22.5486C26.1813 22.8312 25.7445 22.9596 25.2563 22.9596C24.7168 22.9596 24.3057 22.8055 23.9973 22.4972C23.7147 22.1889 23.5606 21.7265 23.5606 21.1357V15.2782H21.1454V21.187C21.1454 22.4202 21.428 23.345 22.0189 24.0129C22.6099 24.6809 23.3807 25.0149 24.3827 25.0149C25.2563 25.0149 25.95 24.7836 26.5153 24.2955ZM35.2252 20.3135C35.2252 19.6712 35.328 19.106 35.5336 18.6179C35.7391 18.1298 36.0217 17.7188 36.3815 17.4619C36.7411 17.1793 37.1779 17.0508 37.6661 17.0508C38.2057 17.0508 38.6167 17.205 38.925 17.5133C39.2077 17.8215 39.3619 18.284 39.3619 18.8748V24.758H41.8027V18.8491C41.8027 17.616 41.52 16.6912 40.9291 16.0232C40.3381 15.3552 39.5674 15.0212 38.5654 15.0212C37.7174 15.0212 37.0238 15.2782 36.4585 15.7406C35.9189 16.2287 35.5078 16.8967 35.2252 17.7188V15.3038H32.8101V24.758H35.2252V20.3135ZM49.973 24.9378C50.2814 24.8864 50.5897 24.8093 50.8467 24.7323C51.1293 24.6552 51.3605 24.5524 51.6174 24.4754L51.6432 22.1889C51.2578 22.3945 50.8467 22.5229 50.4098 22.6257C49.973 22.7284 49.5363 22.7798 49.0995 22.7798C48.4572 22.7798 47.8919 22.6514 47.4552 22.4202C47.0184 22.1889 46.6844 21.855 46.4788 21.4182C46.2733 21.0072 46.1705 20.519 46.1705 20.0052C46.1705 19.4914 46.2733 19.029 46.4788 18.5922C46.6844 18.1812 47.0184 17.8472 47.4552 17.5903C47.8919 17.3334 48.4315 17.2307 49.0482 17.2307C49.5363 17.2307 49.973 17.282 50.4098 17.3848C50.8467 17.4876 51.2321 17.6417 51.6174 17.8215L51.5917 15.458C51.3091 15.3552 51.0522 15.2525 50.7952 15.2011C50.5383 15.124 50.2557 15.0726 49.9217 15.0469C49.6133 14.9956 49.2794 14.9699 48.9197 14.9699C47.8406 14.9699 46.9156 15.2011 46.1191 15.6378C45.3226 16.0746 44.706 16.6912 44.2692 17.4362C43.8325 18.2069 43.6269 19.0547 43.6269 20.0309C43.6269 20.9815 43.8581 21.855 44.2949 22.6C44.7317 23.345 45.3483 23.9359 46.1448 24.3469C46.9413 24.7579 47.8663 24.9892 48.9197 24.9892C49.3051 25.0149 49.6648 24.9892 49.973 24.9378ZM56.2165 24.7323V20.3135C56.2165 19.6712 56.3193 19.106 56.5248 18.6179C56.7304 18.1298 57.013 17.7188 57.3984 17.4619C57.7838 17.1793 58.1949 17.0508 58.6831 17.0508C59.2482 17.0508 59.6593 17.205 59.942 17.5133C60.2246 17.8215 60.3788 18.284 60.3788 18.8748V24.758H62.7939V18.8491C62.7939 17.616 62.5114 16.6912 61.9204 16.0232C61.3295 15.3552 60.5586 15.0212 59.5566 15.0212C58.7088 15.0212 57.9893 15.2782 57.4497 15.7406C56.8846 16.2287 56.4735 16.8967 56.2165 17.7188V11.6815H53.827V24.7323H56.2165ZM70.6047 24.7323C71.9921 24.7323 73.174 24.4754 74.1502 23.9359C75.1266 23.3964 75.8717 22.6514 76.3856 21.6751C76.8994 20.6989 77.1563 19.5428 77.1563 18.2326C77.1563 16.9224 76.8994 15.7663 76.3856 14.79C75.8717 13.8138 75.1266 13.0431 74.1502 12.5036C73.174 11.9641 71.9921 11.7072 70.6047 11.7072H65.5945V24.758H70.6047V24.7323ZM68.0867 22.5229V13.8909H70.579C71.8379 13.8909 72.8143 14.2762 73.5079 15.0212C74.2274 15.792 74.5613 16.8453 74.5613 18.2069C74.5613 19.5685 74.2017 20.6475 73.5079 21.3926C72.7886 22.1376 71.8122 22.5229 70.579 22.5229H68.0867ZM83.4769 24.3212C84.0164 23.9102 84.4275 23.3707 84.7102 22.7027V24.7323H87.0996V18.4381C87.0996 17.7702 86.9455 17.1536 86.6114 16.6398C86.2775 16.1259 85.7892 15.7149 85.1726 15.4323C84.556 15.1497 83.8108 14.9956 82.963 14.9956C82.5005 14.9956 82.0381 15.0469 81.6012 15.124C81.1645 15.2011 80.7534 15.3295 80.368 15.4837C79.9826 15.6378 79.623 15.8177 79.3146 16.0232L79.3916 18.2583C79.9826 17.8729 80.5478 17.5903 81.1131 17.3848C81.6784 17.1793 82.295 17.0765 82.9887 17.0765C83.5283 17.0765 83.965 17.205 84.2734 17.4619C84.5817 17.7188 84.7358 18.0527 84.7358 18.4638V19.106H82.629C81.3443 19.106 80.3423 19.3629 79.5972 19.9024C78.8521 20.4419 78.4924 21.187 78.4924 22.1376C78.4924 22.6771 78.6209 23.1395 78.8521 23.5762C79.109 24.0129 79.4431 24.3469 79.9055 24.5781C80.368 24.835 80.9076 24.9378 81.4985 24.9378C82.295 24.9378 82.9373 24.7323 83.4769 24.3212ZM81.3187 22.7027C81.0618 22.4972 80.9076 22.2146 80.9076 21.855C80.9076 21.4182 81.0874 21.0843 81.4728 20.8531C81.8326 20.6217 82.3977 20.4933 83.1172 20.4933H84.6588V20.8531C84.6588 21.1613 84.5817 21.4696 84.4018 21.8036C84.2219 22.1376 83.965 22.4202 83.6053 22.6514C83.2457 22.8826 82.8603 22.9853 82.3977 22.9853C81.961 23.011 81.6012 22.9083 81.3187 22.7027ZM91.9813 24.7323V20.6989C91.9813 19.6455 92.2125 18.8491 92.6493 18.3096C93.0861 17.7702 93.7028 17.4876 94.4478 17.4876C94.8075 17.4876 95.1416 17.5389 95.4498 17.6417V15.3038C95.2957 15.2525 95.1416 15.2268 94.9874 15.2011C94.8332 15.1754 94.6534 15.1754 94.4735 15.1754C93.8825 15.1754 93.3687 15.3809 92.9576 15.792C92.5466 16.203 92.2125 16.7939 92.007 17.5133V15.2525H89.5918V24.7066H91.9813V24.7323ZM99.4063 24.7323V21.6751L100.28 20.8531L103.107 24.7323H105.984L101.95 19.2088L105.907 15.2782H102.875L99.4324 18.6179V11.6815H97.0429V24.7323H99.4063ZM109.864 24.7323V11.6815H107.449V24.7323H109.864ZM113.563 28.2519C114.462 28.2519 115.183 28.0721 115.747 27.7124C116.312 27.3527 116.775 26.7105 117.16 25.8113L121.502 15.2782H119.01L116.467 21.8807L113.846 15.2782H111.354L115.234 24.7066L115.028 25.1947C114.899 25.5031 114.746 25.76 114.515 25.8884C114.309 26.0426 113.974 26.1196 113.537 26.1196H111.534V28.2519H113.563Z" fill="white"/>
<path d="M139.282 29.8447C139.102 29.8447 138.922 29.742 138.82 29.5621C138.743 29.3823 138.743 29.2025 138.871 29.0483L144.344 21.5209L134.76 25.4259C134.683 25.4516 134.632 25.4773 134.555 25.4773C134.323 25.4773 134.118 25.3232 134.067 25.1176C133.99 24.9121 134.092 24.6809 134.272 24.5525L142.7 19.5942L127.875 18.7464C127.567 18.7207 127.387 18.4895 127.387 18.2326C127.387 18.0014 127.541 17.7445 127.875 17.7188L142.7 16.8709L134.272 11.9127C134.092 11.7842 133.99 11.553 134.067 11.3475C134.144 11.142 134.323 10.9878 134.555 10.9878C134.632 10.9878 134.683 11.0135 134.76 11.0392L144.344 14.9442L138.871 7.39114C138.769 7.23699 138.743 7.03147 138.82 6.87732C138.897 6.69749 139.077 6.59473 139.282 6.59473C139.411 6.59473 139.539 6.64611 139.642 6.74887L150.536 17.6161C150.69 17.7702 150.767 18.0014 150.767 18.2069C150.767 18.4124 150.69 18.618 150.536 18.7978L139.642 29.6906C139.539 29.7933 139.411 29.8447 139.282 29.8447Z" fill="white"/>
</svg>
