<svg width="141" height="36" viewBox="0 0 141 36" fill="none" xmlns="http://www.w3.org/2000/svg">
<path d="M45.1883 23.3099C43.1466 23.3099 41.9496 21.7056 41.9496 19.8888C41.9496 17.7891 43.3108 16.3971 45.1883 16.3971C46.174 16.3971 46.8311 16.7981 47.4413 17.1756L48.4269 15.4062C47.7229 14.9579 46.5495 14.4153 45.3056 14.4153C42.067 14.4153 39.7436 16.7274 39.7436 19.8888C39.7436 23.0267 42.1139 25.3625 45.3056 25.3625C46.6668 25.3625 47.6525 24.7963 48.4269 24.3244L47.4413 22.5549C46.8311 22.9796 45.9158 23.3099 45.1883 23.3099ZM52.1114 9.57861H54.2002V25.0794H52.1114V9.57861ZM66.2394 14.7456L66.0047 15.6421C65.4416 15.0287 64.2446 14.4153 62.9773 14.4153C60.3958 14.4153 58.0255 16.4678 58.0255 19.8181C58.0255 23.2863 60.3958 25.3861 62.9773 25.3861C64.2446 25.3861 65.3946 24.7727 66.0047 24.1592L66.2394 25.103H67.9996V14.8163H66.2394V14.7456ZM66.0517 19.9596C66.0517 22.319 64.6201 23.3806 63.2589 23.3806C61.8744 23.3806 60.2785 22.437 60.2785 19.8417C60.2785 18.1902 61.1468 16.4206 63.0947 16.4206C64.5732 16.4206 66.0517 17.6239 66.0517 19.8417V19.9596ZM75.4625 20.7854C76.8941 21.1629 77.5043 21.446 77.5043 22.1774C77.5043 22.7437 77.0114 23.3335 75.8615 23.3335C74.8054 23.3335 73.9371 22.956 73.1157 22.5078L72.177 24.2772C72.9045 24.7255 74.5238 25.3389 75.8615 25.3389C78.1615 25.3389 79.4989 23.7817 79.4989 22.201C79.4989 19.4878 76.8471 19.0631 76.1431 18.8272C74.6646 18.4261 74.2891 18.1194 74.2891 17.506C74.2891 16.8453 74.8524 16.3971 75.9319 16.3971C76.8706 16.3971 77.5747 16.6802 78.2322 17.0105L79.2176 15.241C78.2788 14.8399 77.1757 14.4153 75.9319 14.4153C73.6789 14.4153 72.3178 16.0196 72.3178 17.506C72.3178 19.8888 74.3126 20.5023 75.4625 20.7854ZM86.6569 20.7854C88.0884 21.1629 88.6984 21.446 88.6984 22.1774C88.6984 22.7437 88.2057 23.3335 87.0556 23.3335C85.9995 23.3335 85.1314 22.956 84.31 22.5078L83.3713 24.2772C84.0986 24.7255 85.7182 25.3389 87.0556 25.3389C89.3558 25.3389 90.6933 23.7817 90.6933 22.201C90.6933 19.4878 88.0417 19.0631 87.3377 18.8272C85.8588 18.4261 85.4835 18.1194 85.4835 17.506C85.4835 16.8453 86.0469 16.3971 87.1263 16.3971C88.065 16.3971 88.7691 16.6802 89.4266 17.0105L90.4119 15.241C89.4732 14.8399 88.3704 14.4153 87.1263 14.4153C84.8734 14.4153 83.5119 16.0196 83.5119 17.506C83.4886 19.8888 85.5068 20.5023 86.6569 20.7854ZM99.7521 14.4153C98.4854 14.4153 97.3353 15.0287 96.7252 15.6421L96.4905 14.6984H94.7304V29.3498H96.7011V24.2536L96.7719 24.2064C97.3353 24.8199 98.4854 25.3153 99.5881 25.3153C102.24 25.3153 104.704 23.593 104.704 19.7473C104.751 16.3027 102.381 14.4153 99.7521 14.4153ZM99.5174 23.3806C98.1567 23.3806 96.7252 22.319 96.7252 19.9596V19.8417C96.7252 17.5767 98.2033 16.4206 99.6822 16.4206C101.653 16.4206 102.498 18.1902 102.498 19.8417C102.498 22.437 100.902 23.3806 99.5174 23.3806ZM116.392 14.7456L116.157 15.6893C115.594 15.0759 114.397 14.4624 113.129 14.4624C110.548 14.4624 108.178 16.515 108.178 19.8653C108.178 23.3335 110.548 25.4333 113.129 25.4333C114.397 25.4333 115.546 24.8199 116.157 24.2064L116.392 25.1502H118.152V14.8635H116.392V14.7456ZM116.18 19.9596C116.18 22.319 114.749 23.3806 113.387 23.3806C112.003 23.3806 110.407 22.437 110.407 19.8417C110.407 18.1902 111.275 16.4206 113.223 16.4206C114.701 16.4206 116.18 17.6239 116.18 19.8417V19.9596ZM125.615 20.7854C127.046 21.1629 127.656 21.446 127.656 22.1774C127.656 22.7437 127.163 23.3335 126.013 23.3335C124.957 23.3335 124.089 22.956 123.268 22.5078L122.329 24.2772C123.056 24.7255 124.676 25.3389 126.013 25.3389C128.313 25.3389 129.651 23.7817 129.651 22.201C129.651 19.4878 126.999 19.0631 126.295 18.8272C124.816 18.4261 124.441 18.1194 124.441 17.506C124.441 16.8453 125.004 16.3971 126.084 16.3971C127.023 16.3971 127.727 16.6802 128.384 17.0105L129.37 15.241C128.431 14.8399 127.328 14.4153 126.084 14.4153C123.831 14.4153 122.47 16.0196 122.47 17.506C122.446 19.8888 124.464 20.5023 125.615 20.7854ZM136.786 20.7854C138.217 21.1629 138.827 21.446 138.827 22.1774C138.827 22.7437 138.334 23.3335 137.184 23.3335C136.128 23.3335 135.26 22.956 134.439 22.5078L133.5 24.2772C134.227 24.7255 135.847 25.3389 137.184 25.3389C139.484 25.3389 140.822 23.7817 140.822 22.201C140.822 19.4878 138.17 19.0631 137.466 18.8272C135.987 18.4261 135.612 18.1194 135.612 17.506C135.612 16.8453 136.176 16.3971 137.255 16.3971C138.194 16.3971 138.898 16.6802 139.554 17.0105L140.541 15.241C139.602 14.8399 138.498 14.4153 137.255 14.4153C135.002 14.4153 133.641 16.0196 133.641 17.506C133.641 19.8888 135.659 20.5023 136.786 20.7854Z" fill="white"/>
<path d="M21.8347 6.29956H18.0563C17.3992 6.29956 16.7421 6.79495 16.6717 7.45558L16.1084 10.1689C16.038 10.6642 15.6156 10.9946 15.1227 10.9946H10.9454C5.28952 11.0653 0.0560608 15.3593 0.0560608 21.4464C0.0560608 26.8728 4.56199 31.8274 11.0393 31.8274H15.3105C15.9676 31.8274 16.6248 31.332 16.6952 30.6714L17.2584 27.9582C17.3288 27.4627 17.7513 27.1324 18.244 27.1324H21.9286C28.2416 27.1324 32.9118 22.2721 32.9118 16.7514C32.8179 10.6642 27.6549 6.29956 21.8347 6.29956ZM21.7408 23.0979H17.3054C16.6482 23.0979 16.085 23.5934 15.9207 24.254L15.3574 26.8964C15.287 27.3919 14.8646 27.7222 14.3718 27.7222H11.0862C7.73022 27.7222 4.11609 25.3392 4.11609 21.3756C4.11609 17.7422 7.3078 15.029 11.0862 15.029H16.1554C16.8125 15.029 17.3758 14.5335 17.54 13.873L18.1032 11.2305C18.1736 10.735 18.5961 10.4047 19.0889 10.4047H21.7174C25.2376 10.4047 28.6875 12.8821 28.6875 16.7514C28.6405 20.2903 25.6131 23.0979 21.7408 23.0979Z" fill="white"/>
</svg>
