<svg width="44" height="44" viewBox="0 0 44 44" fill="none" xmlns="http://www.w3.org/2000/svg">
<rect width="44" height="44" rx="12" fill="#1A8DF7"/>
<mask id="mask0_124_33" style="mask-type:alpha" maskUnits="userSpaceOnUse" x="4" y="4" width="36" height="36">
<rect x="4" y="4" width="36" height="36" fill="#D9D9D9"/>
</mask>
<g mask="url(#mask0_124_33)">
<path d="M30.9998 23.4995V20.4995H36.9998V23.4995H30.9998ZM32.7998 33.9995L27.9998 30.3995L29.7998 27.9995L34.5998 31.5995L32.7998 33.9995ZM29.7998 15.9995L27.9998 13.5995L32.7998 9.99949L34.5998 12.3995L29.7998 15.9995ZM11.4998 32.4995V26.4995H9.99976C9.17476 26.4995 8.46851 26.2057 7.88101 25.6182C7.29351 25.0307 6.99976 24.3245 6.99976 23.4995V20.4995C6.99976 19.6745 7.29351 18.9682 7.88101 18.3807C8.46851 17.7932 9.17476 17.4995 9.99976 17.4995H15.9998L23.4998 12.9995V30.9995L15.9998 26.4995H14.4998V32.4995H11.4998ZM24.9998 27.0245V16.9745C25.6748 17.5745 26.2185 18.3057 26.631 19.1682C27.0435 20.0307 27.2498 20.9745 27.2498 21.9995C27.2498 23.0245 27.0435 23.9682 26.631 24.8307C26.2185 25.6932 25.6748 26.4245 24.9998 27.0245ZM9.99976 20.4995V23.4995H16.8248L20.4998 25.6745V18.3245L16.8248 20.4995H9.99976Z" fill="white"/>
</g>
</svg>
