<svg width="826" height="150" viewBox="0 0 826 150" fill="none" xmlns="http://www.w3.org/2000/svg">
<path d="M17.0863 118.559C14.05 118.566 11.0663 117.766 8.44011 116.242C5.81391 114.718 3.63932 112.524 2.13847 109.885C0.660605 107.264 -0.0764469 104.291 0.00626993 101.283C0.0889869 98.2753 0.988355 95.3468 2.60804 92.8111L33.3907 44.4719C34.9662 41.8739 37.203 39.7407 39.8726 38.2901C42.5425 36.8395 45.5494 36.1236 48.5862 36.2154C51.621 36.2881 54.5818 37.1658 57.1659 38.7586C59.7499 40.3515 61.8644 42.6022 63.2928 45.2806C66.1624 50.7068 65.8038 57.2349 62.3668 62.3284L31.6038 110.668C30.0436 113.098 27.8952 115.096 25.3574 116.476C22.8196 117.855 19.9747 118.572 17.0863 118.559Z" fill="#F62B54"/>
<path d="M69.8862 118.559C63.6776 118.559 57.9645 115.239 54.9645 109.904C53.4899 107.291 52.7546 104.325 52.8373 101.325C52.9199 98.3252 53.8176 95.4047 55.4341 92.8762L86.158 44.6478C87.7102 42.0133 89.9391 39.8422 92.6133 38.3595C95.2877 36.8766 98.3099 36.1363 101.367 36.2152C107.628 36.3521 113.301 39.8544 116.171 45.3327C119.021 50.8109 118.604 57.3782 115.062 62.4586L84.3449 110.687C82.7897 113.108 80.65 115.098 78.1229 116.473C75.5961 117.849 72.7633 118.566 69.8862 118.559Z" fill="#FFCC00"/>
<path d="M121.505 118.963C130.258 118.963 137.353 112.017 137.353 103.448C137.353 94.879 130.258 87.9326 121.505 87.9326C112.753 87.9326 105.658 94.879 105.658 103.448C105.658 112.017 112.753 118.963 121.505 118.963Z" fill="#00CA72"/>
<path d="M809.98 88.8329C814.766 88.8329 817.63 92.2372 817.63 97.8133V116.922H824.132V97.3763C824.132 87.8937 819.665 82.3959 811.265 82.3959C807.977 82.3959 802.759 83.2959 799.65 89.3416C798.926 87.5584 797.733 86.0042 796.198 84.8444C794.663 83.6847 792.843 82.9624 790.93 82.7545C789.725 82.5341 788.499 82.4617 787.277 82.5394C784.604 82.7545 779.843 84.4176 778.062 88.1871V83.1198H771.554V116.922H778.062V98.6806C778.062 91.5851 782.705 88.8329 787.355 88.8329C791.712 88.8329 794.575 92.1655 794.575 97.7416V116.922H801.046V98.6806C801.046 93.0329 804.436 88.7676 809.98 88.8329ZM747.665 111.274C750.639 111.339 753.508 110.152 755.589 108C757.674 105.848 758.785 102.92 758.673 99.9133C758.673 93.1045 753.665 88.8329 747.665 88.8329C741.658 88.8329 736.655 93.1045 736.655 99.9133C736.539 102.913 737.647 105.835 739.72 107.981C741.796 110.133 744.651 111.326 747.612 111.274H747.665ZM747.665 117.613C738.155 117.613 730.219 110.589 730.219 99.8741C730.219 89.159 738.155 82.3567 747.665 82.3567C757.173 82.3567 765.175 89.159 765.175 99.8741C765.175 110.589 757.127 117.646 747.619 117.646L747.665 117.613ZM696.73 99.8741L696.665 99.9133C696.665 89.1982 704.809 82.3959 714.384 82.3567C716.79 82.3102 719.177 82.7692 721.394 83.7039C723.61 84.6385 725.606 86.0282 727.251 87.7829L722.32 91.9829C721.274 90.9546 720.033 90.1439 718.671 89.5975C717.309 89.0513 715.851 88.7803 714.384 88.8002C708.384 88.8002 703.166 93.072 703.166 99.8741C703.166 104.472 705.9 108.613 710.093 110.374C714.286 112.135 719.112 111.157 722.32 107.909L727.323 112.109C725.672 113.882 723.667 115.288 721.438 116.236C719.209 117.184 716.806 117.653 714.384 117.613C704.882 117.613 696.73 110.589 696.73 99.8741ZM675.905 110.433C675.898 109.842 676.009 109.255 676.228 108.707C676.449 108.158 676.773 107.658 677.186 107.236C677.599 106.813 678.092 106.476 678.635 106.243C679.179 106.011 679.763 105.888 680.354 105.881C680.945 105.888 681.529 106.011 682.071 106.243C682.614 106.476 683.107 106.813 683.52 107.236C683.933 107.658 684.259 108.158 684.478 108.707C684.699 109.255 684.808 109.842 684.801 110.433C684.743 111.577 684.25 112.657 683.424 113.45C682.597 114.244 681.499 114.693 680.354 114.704C679.207 114.693 678.109 114.244 677.283 113.45C676.456 112.657 675.963 111.577 675.905 110.433Z" fill="#333333"/>
<path fill-rule="evenodd" clip-rule="evenodd" d="M693.697 40.1478H670.539L654.305 81.9978L638.158 40.1478H615L643.154 106.278L625.643 150H648.632L693.697 40.1478ZM552.854 76.9304C552.854 87.4957 562.089 94.4478 571.16 94.4478C580.075 94.4478 588.835 87.9782 588.835 76.9239C588.835 65.8696 580.075 59.3935 571.16 59.3935C562.089 59.3935 552.854 66.3522 552.854 76.9239V76.9304ZM588.835 113.857V105.489C584.139 112.598 573.182 115.285 567.56 115.285C548.947 115.285 530.328 100.611 530.328 76.9239C530.328 53.2435 548.94 38.5696 567.56 38.5696C572.25 38.5696 583.205 40.1347 588.835 48.3522V40.1739H610.421V113.87L588.835 113.863V113.857ZM524.185 113.857H502.597V104.7C498.99 111.483 490.244 115.435 481.167 115.435C462.39 115.435 445.805 100.441 445.805 77.2239C445.805 53.5696 462.39 38.5565 481.167 38.5565C490.232 38.5565 499.004 42.3392 502.597 49.1282V0H524.185V113.857ZM502.128 76.7608C502.128 65.7131 494.151 59.2369 485.236 59.2369C476.001 59.2369 468.332 66.1826 468.332 76.7608C468.332 87.6784 476.001 94.5912 485.229 94.5912C494.315 94.6043 502.128 87.3392 502.128 76.7608ZM392.432 74.8565C392.432 63.6522 398.224 59.8631 405.886 59.8631C413.236 59.8631 418.558 64.7543 418.558 74.5369V113.843H440.301V69.8088C440.301 48.8218 429.971 38.5565 413.543 38.5565C404.94 38.5565 396.339 43.4478 392.425 50.8696V40.1478H370.694V113.843H392.432V74.8565ZM326.543 115.109C305.894 115.109 288.671 99.9588 288.671 76.7543C288.671 53.5369 305.875 38.5369 326.543 38.5369C347.21 38.5369 364.565 53.5369 364.565 76.7543C364.565 99.9718 347.19 115.115 326.543 115.115V115.109ZM326.543 93.6522C335.608 93.6522 343.128 87.0131 343.128 76.7608C343.128 66.8153 335.615 60.0261 326.543 60.0261C324.358 59.9919 322.189 60.4027 320.169 61.2335C318.148 62.0644 316.318 63.2979 314.79 64.8588C313.253 66.4279 312.048 68.2902 311.243 70.3348C310.44 72.3796 310.057 74.5648 310.115 76.7608C310.121 87.0261 317.628 93.6522 326.543 93.6522ZM249.69 59.8696C256.101 59.8696 261.736 64.9239 261.736 74.5435V113.857H283.324V72C283.324 49.7478 272.504 38.5435 255.162 38.5435C250.009 38.5435 240.305 40.1088 233.262 51.6392C229.193 43.1153 221.374 38.6935 209.817 38.6935C205.804 38.673 201.872 39.8086 198.487 41.9644C195.102 44.1203 192.411 47.205 190.735 50.85V40.1543H168.978V113.85H190.715V74.8565C190.715 63.6522 196.819 59.8631 203.386 59.8631C209.647 59.8631 215.269 64.7543 215.432 74.0674V113.85H237.175V74.8565C237.175 64.1412 242.809 59.8761 249.69 59.8761V59.8696Z" fill="#333333"/>
</svg>
