<svg width="669" height="150" viewBox="0 0 669 150" fill="none" xmlns="http://www.w3.org/2000/svg">
<g clip-path="url(#clip0_10_68)">
<path d="M100.309 124.915C72.7668 152.458 -0.000474267 149.85 -0.000474267 149.85C-0.000474267 149.85 -2.48799 77.2328 25.0844 49.6903C52.6569 22.1479 79.0305 29.3707 100.01 50.1399C120.989 70.9091 127.852 97.3427 100.309 124.915Z" fill="#4F88F7"/>
<path d="M103.037 92.4277C86.3732 109.091 42.4371 107.563 42.4371 107.563C42.4371 107.563 40.9086 63.6265 57.572 46.9632C74.2353 30.2998 90.2094 34.6754 102.767 47.2329C115.324 59.7903 119.7 75.7644 103.037 92.4277Z" fill="#F58127"/>
<path d="M126.632 58.6472C148.917 36.3627 158.86 10.1759 148.842 0.157242C138.823 -9.8614 112.636 0.0820075 90.3515 22.3665C68.0671 44.6509 58.1237 70.8378 68.1423 80.8564C78.161 90.8751 104.348 80.9317 126.632 58.6472Z" fill="#B7CDE5"/>
<path d="M130.522 81.7608C132.582 63.1875 127.478 47.3794 119.12 46.4523C110.763 45.5252 102.318 59.8303 100.258 78.4036C98.1976 96.9768 103.302 112.785 111.659 113.712C120.016 114.639 128.461 100.334 130.522 81.7608Z" fill="#B7CDE5"/>
<path d="M70.7986 48.9344C89.3719 46.8741 103.677 38.429 102.75 30.0719C101.823 21.7147 86.0147 16.6102 67.4414 18.6705C48.8681 20.7309 34.5631 29.1759 35.4901 37.5331C36.4172 45.8902 52.2253 50.9948 70.7986 48.9344Z" fill="#B7CDE5"/>
<path d="M124.405 36.3837C130.38 36.3837 135.224 31.5398 135.224 25.5645C135.224 19.5893 130.38 14.7454 124.405 14.7454C118.43 14.7454 113.586 19.5893 113.586 25.5645C113.586 31.5398 118.43 36.3837 124.405 36.3837Z" fill="#F0F5FC"/>
<path d="M385.894 54.6055C375.764 61.7084 372.377 71.9282 373.906 83.8263C374.246 89.1387 376.128 94.2365 379.322 98.4951C382.516 102.754 386.883 105.988 391.888 107.802C397.089 109.988 402.802 110.661 408.369 109.743C413.936 108.826 419.131 106.356 423.356 102.618C426.008 100.416 428.137 97.6516 429.59 94.5256L420.359 90.8993C417.787 94.7358 414.01 97.6056 409.624 99.0549C405.238 100.504 400.495 100.45 396.143 98.9012C393.019 97.9017 390.267 95.9879 388.242 93.4073C386.217 90.8267 385.012 87.698 384.785 84.4257H431.568C432.504 77.4144 431.313 70.2836 428.151 63.9562C419.58 47.5926 398.301 45.8843 385.894 54.6055ZM384.875 74.9852C385.534 65.7544 393.056 59.5206 403.306 59.5806C407.635 59.3945 411.868 60.8864 415.123 63.7452C418.378 66.604 420.404 70.6091 420.779 74.9252L384.875 74.9852Z" fill="#424242"/>
<path d="M233.766 49.8703C229.774 49.7865 225.807 50.5175 222.108 52.0186C218.408 53.5197 215.053 55.7594 212.248 58.6008C209.443 61.4422 207.247 64.8257 205.794 68.5446C204.341 72.2634 203.661 76.2395 203.796 80.2299C203.81 84.1971 204.605 88.1228 206.136 91.7827C207.667 95.4427 209.904 98.7652 212.719 101.561C215.534 104.356 218.872 106.57 222.542 108.075C226.213 109.581 230.144 110.349 234.111 110.335C238.078 110.321 242.004 109.526 245.664 107.995C249.324 106.464 252.646 104.227 255.442 101.412C258.237 98.5974 260.451 95.2594 261.956 91.5889C263.462 87.9184 264.23 83.9873 264.216 80.0201C264.316 76.0079 263.595 72.0175 262.097 68.2942C260.598 64.571 258.354 61.1936 255.502 58.3696C252.65 55.5457 249.25 53.335 245.513 51.8734C241.775 50.4117 237.777 49.73 233.766 49.8703ZM233.766 100.34C231.154 100.318 228.572 99.7708 226.175 98.7308C223.779 97.6909 221.615 96.1795 219.815 94.2865C218.014 92.3935 216.612 90.1576 215.693 87.7118C214.774 85.2661 214.357 82.6605 214.465 80.0501C214.477 77.4919 214.993 74.961 215.983 72.6021C216.973 70.2431 218.417 68.1022 220.235 66.3016C223.905 62.6652 228.869 60.6356 234.036 60.6595C236.594 60.6713 239.125 61.1869 241.484 62.1767C243.843 63.1666 245.984 64.6115 247.784 66.4288C249.585 68.246 251.01 70.4002 251.978 72.7682C252.946 75.1362 253.438 77.6717 253.427 80.2299C253.499 82.8526 253.043 85.463 252.086 87.906C251.13 90.349 249.692 92.5746 247.857 94.4507C246.023 96.3267 243.831 97.8148 241.41 98.8265C238.989 99.8382 236.39 100.353 233.766 100.34Z" fill="#424242"/>
<path d="M287.413 29.2808H276.653V50.9491V60.1799V108.492H287.413V60.1799H300.45V50.9491H287.413V29.2808Z" fill="#424242"/>
<path d="M658.141 50.949C657.692 50.949 657.032 51.7282 656.823 52.2677C655.594 55.5045 654.455 58.7712 653.286 62.0379L642.647 91.7382C642.257 90.7792 641.988 90.1498 641.748 89.5204C637.312 77.2727 632.897 65.005 628.501 52.7172C628.021 51.3986 627.452 50.7392 625.924 50.8591C623.667 50.979 621.406 50.979 619.15 50.8591C617.682 50.8591 617.052 51.3386 616.573 52.7172C612.647 63.8961 608.601 75.0749 604.585 86.2537C603.985 87.992 603.326 89.7302 602.577 91.7382C602.187 90.6893 601.888 89.97 601.618 89.2507C597.242 77.0529 592.897 64.8251 588.461 52.6273C588.221 51.968 587.562 51.009 587.052 50.979C583.606 50.8291 580.129 50.979 576.413 50.979C576.413 51.5484 576.593 51.7882 576.683 52.0279C583.736 70.5095 590.729 88.991 597.662 107.472C597.755 107.868 597.997 108.213 598.337 108.436C598.677 108.659 599.09 108.744 599.49 108.671C601.357 108.566 603.228 108.566 605.094 108.671C605.382 108.732 605.679 108.734 605.968 108.677C606.256 108.621 606.53 108.506 606.774 108.341C607.017 108.176 607.225 107.964 607.384 107.717C607.544 107.47 607.652 107.193 607.702 106.903C612.227 93.986 616.873 81.1288 621.488 68.2417C621.698 67.6124 621.968 66.983 622.327 65.994C622.717 66.923 622.957 67.4625 623.166 68.0319L635.934 101.898C636.743 104.056 636.983 107.083 638.541 108.132C640.099 109.181 643.126 108.402 645.494 108.581C645.782 108.642 646.079 108.644 646.367 108.587C646.656 108.531 646.93 108.416 647.173 108.251C647.417 108.086 647.625 107.874 647.784 107.627C647.943 107.38 648.051 107.103 648.101 106.813C654.775 88.8311 661.488 70.7792 668.241 52.6573C668.443 52.0776 668.613 51.4873 668.751 50.8891C665.064 50.949 661.588 50.949 658.141 50.949Z" fill="#424242"/>
<path d="M539.461 49.4805C535.467 49.4009 531.5 50.1357 527.8 51.6402C524.1 53.1446 520.745 55.3872 517.941 58.2309C515.136 61.0747 512.941 64.4601 511.488 68.1805C510.035 71.901 509.355 75.8784 509.49 79.8701C509.518 87.8823 512.728 95.5552 518.413 101.201C524.098 106.847 531.793 110.003 539.805 109.975C547.817 109.947 555.49 106.738 561.136 101.053C566.782 95.3675 569.938 87.6725 569.91 79.6604C570.01 75.6468 569.289 71.6551 567.791 67.9303C566.293 64.2055 564.049 60.8262 561.198 57.9999C558.346 55.1737 554.947 52.9601 551.209 51.4951C547.471 50.03 543.473 49.3445 539.461 49.4805ZM539.461 99.98C536.848 99.9582 534.266 99.411 531.87 98.3711C529.473 97.3311 527.31 95.8197 525.509 93.9267C523.708 92.0337 522.307 89.7978 521.388 87.3521C520.469 84.9063 520.051 82.3008 520.16 79.6903C520.17 77.1321 520.683 74.6009 521.671 72.2412C522.659 69.8814 524.103 67.7394 525.919 65.9375C527.734 64.1355 529.887 62.7088 532.255 61.7389C534.622 60.769 537.157 60.2749 539.715 60.2847C542.273 60.2946 544.805 60.8082 547.164 61.7963C549.524 62.7844 551.666 64.2275 553.468 66.0434C555.27 67.8593 556.697 70.0124 557.667 72.3796C558.637 74.7469 559.131 77.282 559.121 79.8402C559.189 82.4632 558.731 85.0732 557.773 87.5159C556.815 89.9587 555.377 92.1847 553.544 94.0622C551.711 95.9398 549.521 97.4309 547.102 98.4473C544.683 99.4637 542.084 99.9849 539.461 99.98Z" fill="#424242"/>
<path d="M348.132 50.9492V108.492H358.651V50.9492H349.9H348.132Z" fill="#424242"/>
<path d="M353.376 22.5374C352.439 22.5374 351.512 22.7219 350.646 23.0804C349.781 23.4388 348.995 23.9642 348.332 24.6266C347.67 25.2889 347.145 26.0752 346.786 26.9406C346.428 27.806 346.243 28.7336 346.243 29.6703C346.243 30.607 346.428 31.5345 346.786 32.3999C347.145 33.2653 347.67 34.0516 348.332 34.714C348.995 35.3763 349.781 35.9017 350.646 36.2602C351.512 36.6186 352.439 36.8031 353.376 36.8031C354.355 36.8473 355.333 36.695 356.253 36.3553C357.172 36.0155 358.014 35.4951 358.729 34.8247C359.444 34.1543 360.018 33.3476 360.416 32.4521C360.814 31.5565 361.029 30.5903 361.048 29.6103C360.963 27.6572 360.108 25.8172 358.67 24.4921C357.233 23.167 355.33 22.4643 353.376 22.5374Z" fill="#424242"/>
<path d="M323.556 29.2507H312.767V50.949V60.1798V108.491H323.556V60.1798H336.563V50.949H323.556V29.2507Z" fill="#424242"/>
<path d="M191.299 23.6465H180.27V108.462H191.299V23.6465Z" fill="#424242"/>
<path d="M484.046 19.6005V108.462H494.505V19.7803C494.296 19.7803 494.266 19.5706 494.206 19.5706L484.046 19.6005Z" fill="#424242"/>
<path d="M449.28 31.4986C447.535 36.2111 446.741 41.2226 446.943 46.2438V50.9491V60.1799V108.522H457.672C457.672 98.8712 457.672 76.9931 457.672 60.1799H470.649V50.9491H457.762C457.762 44.3257 457.972 39.5605 458.122 38.4216C458.3 36.2935 459.231 34.2985 460.747 32.7938C462.262 31.2892 464.264 30.3732 466.393 30.2099C468.851 29.9401 471.308 29.8202 473.796 29.7603V19.6604C470.799 19.6604 467.802 19.6604 464.805 19.9301C461.355 20.0776 458.03 21.2599 455.261 23.3231C452.492 25.3863 450.408 28.235 449.28 31.4986Z" fill="#424242"/>
</g>
<defs>
<clipPath id="clip0_10_68">
<rect width="668.751" height="150" fill="white"/>
</clipPath>
</defs>
</svg>
