<svg width="660" height="151" viewBox="0 0 660 151" fill="none" xmlns="http://www.w3.org/2000/svg">
<path fill-rule="evenodd" clip-rule="evenodd" d="M223.585 99.3438L223.458 97.6489H221.759H211.21H209.302L209.38 99.5553C210.25 120.795 224.569 134.863 250.035 134.863C274.323 134.863 290.839 122.244 290.839 103.143C290.839 92.8148 287.255 85.5059 280.427 80.5144C275.175 76.6747 268.895 74.5105 258.481 72.2525C257.786 72.1016 257.06 71.9472 256.191 71.7643C255.675 71.6557 253.824 71.2681 253.922 71.2887C235.01 67.3239 229.011 63.8797 229.011 53.6223C229.011 43.0154 237.685 36.2607 252.233 36.2607C266.387 36.2607 275.332 44.9053 275.749 58.5132L275.803 60.2886H277.579H287.982H289.856L289.813 58.4149C289.323 37.2035 275.091 22.9282 252.086 22.9282C229.54 22.9282 214.653 36.4951 214.653 54.0619C214.653 64.3609 218.232 71.5331 225.071 76.3251C230.281 79.9756 236.316 81.9109 246.962 84.0604C247.461 84.1611 247.981 84.265 248.6 84.3879C248.984 84.4639 249.417 84.5495 250.229 84.7102C260.303 86.7032 264.747 87.9334 268.802 90.2912C273.836 93.2183 276.334 97.3993 276.334 103.876C276.334 115.12 266.88 121.53 250.328 121.53C234.483 121.53 224.65 113.584 223.585 99.3438ZM320.507 21.0968V19.2654H318.676H308.273H306.442V21.0968V130.98V132.812H308.273H318.676H320.507V130.98V111.388L335.312 96.9689L361.752 132.082L362.302 132.812H363.215H376.108H379.798L377.567 129.873L345.277 87.3416L375.056 57.7041L378.2 54.5746H373.764H359.845H359.083L358.546 55.1156L320.507 93.4251V21.0968ZM451.928 98.528H453.648L453.755 96.8108C453.774 96.5088 453.802 96.0096 453.83 95.4081C453.852 94.9321 453.871 94.4681 453.884 94.0295C453.898 93.5542 453.906 93.1218 453.906 92.7408C453.906 69.7537 438.68 52.8165 416.179 52.8165C393.72 52.8165 377.72 70.8457 377.72 93.6199C377.72 117.055 392.995 134.57 416.325 134.57C433.966 134.57 447.595 124.103 452.505 108.226L453.239 105.854H450.756H439.914H438.62L438.188 107.073C435.104 115.762 426.756 121.53 416.472 121.53C403.027 121.53 393.655 112.297 391.966 98.528H451.928ZM392.392 86.3676C394.767 74.0391 403.834 65.856 416.179 65.856C428.903 65.856 437.684 73.7705 439.605 86.3676H392.392ZM500.057 67.0281H501.888V65.1967V56.406V54.5746H500.057H484.746V35.1619V33.3305H482.915H472.512H470.681V35.1619V54.5746H458.301H456.469V56.406V65.1967V67.0281H458.301H470.681V110.908C470.681 125.303 478.147 133.105 491.852 133.105C494.244 133.105 496.306 132.961 498.038 132.721C499.107 132.572 499.846 132.418 500.254 132.305L501.595 131.933V130.541V121.164V118.892L499.374 119.374C499.286 119.394 499.106 119.43 498.849 119.478C498.414 119.56 497.929 119.642 497.409 119.718C496.078 119.914 494.757 120.04 493.541 120.062C493.416 120.064 493.292 120.065 493.171 120.065C487.167 120.065 484.746 117.245 484.746 110.176V67.0281H500.057ZM543.79 134.57C563.258 134.57 577.004 122.25 580.456 104.817L580.889 102.63H578.66H568.111H566.703L566.341 103.991C563.384 115.116 555.357 121.53 543.79 121.53C529.355 121.53 519.396 110.143 519.396 93.7664C519.396 77.263 529.338 65.856 543.79 65.856C555.357 65.856 563.384 72.2701 566.341 83.395L566.703 84.7559H568.111H578.66H580.889L580.456 82.5688C577.004 65.1359 563.258 52.8165 543.79 52.8165C521.175 52.8165 505.184 70.9731 505.184 93.7664C505.184 116.434 521.197 134.57 543.79 134.57ZM606.79 21.0968V19.2654H604.959H594.556H592.725V21.0968V130.98V132.812H594.556H604.959H606.79V130.98V86.8804C606.79 73.444 614.968 65.563 627.375 65.563C639.224 65.563 645.176 72.4226 645.176 85.4152V130.98V132.812H647.007H657.41H659.241V130.98V83.3641C659.241 65.0112 647.877 52.8165 629.133 52.8165C619.49 52.8165 611.739 56.3494 606.79 61.4201V21.0968Z" fill="black"/>
<path fill-rule="evenodd" clip-rule="evenodd" d="M36.459 5.10535L83.5519 0.166748L130.645 5.10535L167.104 53.6543L83.5519 150.166L0 53.6543L36.459 5.10535Z" fill="#FDB300"/>
<path fill-rule="evenodd" clip-rule="evenodd" d="M33.8423 53.6542L83.5515 150.167L0 53.6542H33.8423Z" fill="#EA6C00"/>
<path fill-rule="evenodd" clip-rule="evenodd" d="M133.262 53.6542L83.5528 150.167L167.104 53.6542H133.262Z" fill="#EA6C00"/>
<path fill-rule="evenodd" clip-rule="evenodd" d="M33.8423 53.6542H133.261L83.5514 150.167L33.8423 53.6542Z" fill="#FDAD00"/>
<path fill-rule="evenodd" clip-rule="evenodd" d="M83.5514 0.166748L36.4586 5.10452L33.8423 53.6538L83.5514 0.166748Z" fill="#FDD231"/>
<path fill-rule="evenodd" clip-rule="evenodd" d="M83.5523 0.166748L130.645 5.10452L133.261 53.6538L83.5523 0.166748Z" fill="#FDD231"/>
<path fill-rule="evenodd" clip-rule="evenodd" d="M167.104 53.6539L130.646 5.10461L133.262 53.6539H167.104Z" fill="#FDAD00"/>
<path fill-rule="evenodd" clip-rule="evenodd" d="M0 53.6539L36.4586 5.10461L33.8423 53.6539H0Z" fill="#FDAD00"/>
<path fill-rule="evenodd" clip-rule="evenodd" d="M83.5514 0.166748L33.8423 53.6538H133.261L83.5514 0.166748Z" fill="#FEEEB7"/>
</svg>
