<svg width="670" height="150" viewBox="0 0 670 150" fill="none" xmlns="http://www.w3.org/2000/svg">
<path d="M114.874 25.7523C89.3065 23.9158 60.8275 23.9159 35.2595 25.7523C29.9074 26.1368 25.8521 30.235 25.4498 35.2443C24.1592 51.309 23.9875 75.377 25.1709 91.4255C25.5618 96.7265 30.2158 101.277 36.5121 101.277H56.25V125.625L36.5523 125.611C18.4824 125.611 2.2629 112.217 0.861845 93.218C-0.413678 75.921 -0.237505 50.601 1.15298 33.2924C2.54651 15.946 16.4952 2.66238 33.5133 1.44001C60.244 -0.479998 89.89 -0.480006 116.62 1.44001C133.639 2.66237 147.587 15.946 148.981 33.2924C150.372 50.601 150.311 75.921 149.035 93.218C147.634 112.217 131.452 125.666 113.382 125.666L93.888 125.652L56.25 150V125.625L93.888 101.277H113.385C119.681 101.277 124.335 96.7265 124.726 91.4255C125.91 75.377 125.975 51.309 124.684 35.2443C124.282 30.235 120.227 26.1368 114.874 25.7523Z" fill="#FE5000"/>
<path d="M187.31 107.022H246.215V92.232H205.16V17.7722H187.31V107.022Z" fill="#1B1B20"/>
<path d="M254.752 107.023H272.092V40.723H254.752V107.023ZM253.35 23.383C253.35 29.1205 257.557 33.4555 263.422 33.4555C269.287 33.4555 273.495 29.1205 273.495 23.383C273.495 17.6455 269.287 13.3105 263.422 13.3105C257.557 13.3105 253.35 17.6455 253.35 23.383Z" fill="#1B1B20"/>
<path d="M340.082 40.7227H322.742L308.462 89.3L294.182 40.7227H276.842L299.409 107.022H317.514L340.082 40.7227Z" fill="#1B1B20"/>
<path d="M371.024 108.552C385.687 108.552 397.544 99.7545 399.839 87.642H384.667C383.009 92.232 378.419 96.057 371.024 96.057C360.952 96.057 356.999 89.2995 356.999 81.522V79.8645H400.349V68.262C400.349 52.3245 390.404 39.1919 370.769 39.1919C350.879 39.1919 340.169 51.942 340.169 69.9195V78.972C340.169 97.587 352.282 108.552 371.024 108.552ZM356.999 66.987C356.999 58.062 360.824 51.432 370.769 51.432C380.077 51.432 384.412 57.6795 384.412 65.967V67.6245H356.999V66.987Z" fill="#1B1B20"/>
<path d="M446.434 108.807C469.002 108.807 482.899 93.5075 483.792 75.275H467.217C466.069 85.3475 459.694 94.145 446.434 94.145C431.517 94.145 425.142 83.945 425.142 69.665V55.13C425.142 40.85 431.517 30.65 446.434 30.65C459.694 30.65 466.069 39.4475 467.217 49.5201H483.792C482.899 31.2875 469.002 15.9875 446.434 15.9875C419.532 15.9875 407.419 33.2001 407.419 56.0225V68.7725C407.419 91.595 419.532 108.807 446.434 108.807Z" fill="#1B1B20"/>
<path d="M493.219 107.023H510.56V67.753C510.56 58.828 515.53 54.238 523.31 54.238C531.725 54.238 535.42 59.7205 535.42 67.3705V107.023H552.76V64.5655C552.76 48.8828 543.71 39.1928 529.3 39.1928C520.76 39.1928 514 42.8903 510.56 48.6278V13.9478H493.219V107.023Z" fill="#1B1B20"/>
<path d="M585.86 108.552C593.51 108.552 601.925 105.365 604.985 100.902V107.022H621.685V64.692C621.685 49.2644 610.34 39.1919 593.765 39.1919C579.485 39.1919 569.155 46.0769 565.33 58.9545H581.395C583.18 55.3845 586.88 52.707 592.87 52.707C600.01 52.707 604.345 57.297 604.345 63.417V72.4695C601.285 69.9195 595.42 66.8595 587.515 66.8595C571.58 66.8595 560.74 73.4895 560.74 87.897C560.74 100.774 570.94 108.552 585.86 108.552ZM590.32 97.077C583.055 97.077 577.57 93.507 577.57 87.387C577.57 81.267 582.67 77.952 590.83 77.952C598.61 77.952 604.345 81.3945 604.345 87.2595C604.345 92.8695 597.97 97.077 590.32 97.077Z" fill="#1B1B20"/>
<path d="M654.09 107.022H666.075V92.997H659.06C654.47 92.997 652.815 91.212 652.815 86.877V54.747H666.965V40.7222H652.815V22.6172H635.345V40.7222H625.91V54.747H635.345V88.152C635.345 99.882 641.34 107.022 654.09 107.022Z" fill="#1B1B20"/>
</svg>
