<svg width="260" height="60" viewBox="0 0 260 60" fill="none" xmlns="http://www.w3.org/2000/svg">
<path d="M55.6825 7.66443L40.401 13.3103H27.6791L12.3976 7.66443L10.0264 14.7029L11.6072 22.2684L10.591 23.0211L12.0965 24.1503L10.9297 25.016L12.4353 26.371L11.4943 27.0485L13.6773 29.608L10.4028 39.6952L13.4515 50.0083L24.141 47.1101L26.2111 48.8039L30.4267 51.6644H37.6534L41.9066 48.8039L43.9767 47.1101L54.6662 50.0083L57.715 39.6952L54.4027 29.608M54.3651 29.608L56.5482 27.0862L55.6072 26.4087L57.1128 25.0536L55.9459 24.188L57.4515 23.0588L56.4729 22.306L58.0537 14.7406L55.6825 7.70207" fill="#F5841F"/>
<path d="M223.327 29.7961C222.085 28.9681 220.692 28.3659 219.375 27.6507C218.509 27.1614 217.606 26.7474 216.89 26.1452C215.648 25.1289 215.912 23.0964 217.192 22.1931C219.073 20.951 222.198 21.6285 222.536 24.1879C222.536 24.2256 222.574 24.2632 222.649 24.2632H225.51C225.585 24.2632 225.623 24.2256 225.623 24.1503C225.472 22.3813 224.795 20.9133 223.553 19.9724C222.348 19.069 220.993 18.5797 219.525 18.5797C211.997 18.5797 211.32 26.5215 215.385 29.0434C215.837 29.3445 219.826 31.3393 221.219 32.205C222.612 33.0707 223.063 34.6516 222.461 35.9313C221.896 37.0605 220.466 37.8509 219.036 37.7756C217.455 37.7003 216.251 36.8346 215.837 35.5173C215.761 35.2914 215.724 34.8021 215.724 34.6139C215.724 34.5763 215.686 34.501 215.611 34.501H212.524C212.487 34.501 212.411 34.5387 212.411 34.6139C212.411 36.8346 212.976 38.0767 214.482 39.2059C215.912 40.2598 217.455 40.7114 219.073 40.7114C223.289 40.7114 225.472 38.3402 225.886 35.856C226.187 33.4095 225.472 31.2264 223.327 29.7961Z" fill="#161616"/>
<path d="M91.2889 18.9938H86.6217C86.584 18.9938 86.5464 19.0314 86.5088 19.0691L83.9869 27.4249C83.9493 27.5378 83.7988 27.5378 83.7611 27.4249L81.2393 19.0691C81.2393 19.0314 81.2017 18.9938 81.1264 18.9938H76.4215C76.3839 18.9938 76.3086 19.0314 76.3086 19.1067V40.4104C76.3086 40.448 76.3462 40.5233 76.4215 40.5233H79.5079C79.5455 40.5233 79.6208 40.4856 79.6208 40.4104V24.2256C79.6208 24.1127 79.809 24.075 79.8467 24.188L82.4061 32.5815L82.5943 33.1837C82.5943 33.2213 82.6319 33.259 82.7072 33.259H85.0785C85.1161 33.259 85.1538 33.2213 85.1914 33.1837L85.3796 32.5815L87.939 24.188C87.9767 24.075 88.1649 24.1127 88.1649 24.2256V40.4104C88.1649 40.448 88.2025 40.5233 88.2778 40.5233H91.3642C91.4018 40.5233 91.4771 40.4856 91.4771 40.4104V19.1067C91.4018 19.0314 91.3642 18.9938 91.2889 18.9938Z" fill="#161616"/>
<path d="M176.127 18.9939C176.089 18.9939 176.052 19.0315 176.014 19.0692L173.492 27.425C173.454 27.5379 173.304 27.5379 173.266 27.425L170.744 19.0692C170.744 19.0315 170.707 18.9939 170.632 18.9939H165.927C165.889 18.9939 165.814 19.0315 165.814 19.1068V40.4105C165.814 40.4481 165.851 40.5234 165.927 40.5234H169.013C169.051 40.5234 169.126 40.4858 169.126 40.4105V24.2257C169.126 24.1128 169.314 24.0752 169.352 24.1881L171.911 32.5816L172.099 33.1838C172.099 33.2214 172.137 33.2591 172.212 33.2591H174.584C174.621 33.2591 174.659 33.2214 174.697 33.1838L174.885 32.5816L177.444 24.1881C177.482 24.0752 177.67 24.1128 177.67 24.2257V40.4105C177.67 40.4481 177.708 40.5234 177.783 40.5234H180.869C180.907 40.5234 180.982 40.4858 180.982 40.4105V19.1068C180.982 19.0692 180.945 18.9939 180.869 18.9939H176.127Z" fill="#161616"/>
<path d="M136.381 18.9938H121.814C121.777 18.9938 121.701 19.0314 121.701 19.1067V21.7791C121.701 21.8167 121.739 21.892 121.814 21.892H127.46V40.4104C127.46 40.448 127.498 40.5233 127.573 40.5233H130.659C130.697 40.5233 130.772 40.4856 130.772 40.4104V21.892H136.418C136.456 21.892 136.531 21.8543 136.531 21.7791V19.1067C136.493 19.0314 136.456 18.9938 136.381 18.9938Z" fill="#161616"/>
<path d="M147.183 31.0758L149.442 22.7576C149.479 22.6446 149.63 22.6446 149.667 22.7576L151.926 31.0758C151.926 31.151 151.888 31.2263 151.813 31.2263H147.296C147.221 31.2263 147.146 31.151 147.183 31.0758ZM154.56 40.4855H157.383C157.459 40.4855 157.496 40.4102 157.496 40.335L151.7 18.956C151.7 18.9184 151.662 18.8807 151.587 18.8807H147.56C147.522 18.8807 147.484 18.9184 147.447 18.956L141.65 40.335C141.65 40.4102 141.688 40.4855 141.763 40.4855H144.586C144.624 40.4855 144.661 40.4479 144.699 40.4102L146.393 34.1998C146.393 34.1622 146.43 34.1245 146.506 34.1245H152.716C152.754 34.1245 152.791 34.1622 152.829 34.1998L154.523 40.4102C154.448 40.4479 154.523 40.4855 154.56 40.4855Z" fill="#161616"/>
<path d="M195.022 31.076L197.28 22.7578C197.318 22.6449 197.468 22.6449 197.506 22.7578L199.764 31.076C199.764 31.1513 199.727 31.2266 199.651 31.2266H195.135C195.059 31.2266 194.984 31.1513 195.022 31.076ZM202.399 40.4858H205.222C205.297 40.4858 205.335 40.4105 205.335 40.3352L199.538 18.9563C199.538 18.9186 199.501 18.881 199.426 18.881H195.398C195.36 18.881 195.323 18.9186 195.285 18.9563L189.451 40.3352C189.451 40.4105 189.489 40.4858 189.564 40.4858H192.387C192.425 40.4858 192.462 40.4481 192.5 40.4105L194.194 34.2001C194.194 34.1624 194.231 34.1248 194.307 34.1248H200.517C200.555 34.1248 200.592 34.1624 200.63 34.2001L202.324 40.4105C202.286 40.4481 202.324 40.4858 202.399 40.4858Z" fill="#161616"/>
<path d="M103.936 37.3615V30.7371C103.936 30.6994 103.973 30.6241 104.049 30.6241H112.254C112.292 30.6241 112.367 30.5865 112.367 30.5112V27.8389C112.367 27.8012 112.329 27.7259 112.254 27.7259H104.049C104.011 27.7259 103.936 27.6883 103.936 27.613V21.9672C103.936 21.9295 103.973 21.8543 104.049 21.8543H113.383C113.421 21.8543 113.496 21.8166 113.496 21.7413V19.069C113.496 19.0313 113.458 18.9561 113.383 18.9561H100.736C100.699 18.9561 100.624 18.9937 100.624 19.069V40.335C100.624 40.3726 100.661 40.4479 100.736 40.4479H113.76C113.797 40.4479 113.872 40.4103 113.872 40.335V37.5121C113.872 37.4744 113.835 37.3992 113.76 37.3992H104.011C103.973 37.4744 103.936 37.4368 103.936 37.3615Z" fill="#161616"/>
<path d="M251.481 40.3351L240.829 29.3069C240.791 29.2692 240.791 29.1939 240.829 29.1563L250.427 19.182C250.502 19.1067 250.427 18.9938 250.352 18.9938H246.437C246.399 18.9938 246.399 18.9938 246.362 19.0314L238.232 27.5002C238.156 27.5755 238.044 27.5002 238.044 27.4249V19.1067C238.044 19.0691 238.006 18.9938 237.931 18.9938H234.844C234.807 18.9938 234.731 19.0314 234.731 19.1067V40.4104C234.731 40.448 234.769 40.5233 234.844 40.5233H237.931C237.968 40.5233 238.044 40.4856 238.044 40.4104V31.0383C238.044 30.963 238.156 30.8877 238.232 30.963L247.453 40.4856C247.453 40.4856 247.491 40.5233 247.529 40.5233H251.443C251.481 40.5233 251.556 40.3727 251.481 40.3351Z" fill="#161616"/>
<path d="M55.6824 7.66443L36.9005 21.4027L40.4009 13.2726L55.6824 7.66443Z" fill="#E27625"/>
<path d="M12.3597 7.66443L30.991 21.5156L27.6412 13.2726L12.3597 7.66443Z" fill="#E27625"/>
<path d="M48.9074 39.5071L43.9391 47.0349L54.6286 49.9707L57.6773 39.6576L48.9074 39.5071Z" fill="#E27625"/>
<path d="M10.365 39.6576L13.4138 49.9707L24.1032 47.0349L19.1349 39.5071L10.365 39.6576Z" fill="#E27625"/>
<path d="M23.5381 26.7476L20.5646 31.189L31.1411 31.6783L30.8024 20.3866L23.5381 26.7476Z" fill="#E27625"/>
<path d="M44.5036 26.7475L37.1263 20.2736L36.9005 31.6782L47.4771 31.1889L44.5036 26.7475Z" fill="#E27625"/>
<path d="M24.1033 47.0349L30.5019 43.9861L25.0066 39.7329L24.1033 47.0349Z" fill="#E27625"/>
<path d="M37.5399 43.9861L43.9385 47.0349L43.0352 39.7329L37.5399 43.9861Z" fill="#E27625"/>
<path d="M43.9385 47.0348L37.5399 43.9861L38.0669 48.0887L37.9916 49.8201L43.9385 47.0348Z" fill="#D7C1B3"/>
<path d="M24.1033 47.0348L30.0502 49.8201L30.0126 48.0887L30.5019 43.9861L24.1033 47.0348Z" fill="#D7C1B3"/>
<path d="M30.1632 37.0228L24.8561 35.4796L28.5823 33.7859L30.1632 37.0228Z" fill="#2F343B"/>
<path d="M37.8792 37.0228L39.46 33.7859L43.2239 35.4796L37.8792 37.0228Z" fill="#2F343B"/>
<path d="M24.1032 47.0349L25.0442 39.5071L19.1349 39.6576L24.1032 47.0349Z" fill="#CC6228"/>
<path d="M42.998 39.5071L43.939 47.0349L48.9074 39.6576L42.998 39.5071Z" fill="#CC6228"/>
<path d="M47.4771 31.1888L36.9005 31.6782L37.8791 37.0229L39.46 33.7859L43.2239 35.4797L47.4771 31.1888Z" fill="#CC6228"/>
<path d="M24.8554 35.4798L28.5817 33.7861L30.1625 37.023L31.1411 31.6783L20.5646 31.189L24.8554 35.4798Z" fill="#CC6228"/>
<path d="M20.5646 31.189L25.006 39.733L24.8554 35.4798L20.5646 31.189Z" fill="#E27625"/>
<path d="M43.2236 35.4797L43.0354 39.7329L47.4768 31.1888L43.2236 35.4797Z" fill="#E27625"/>
<path d="M31.1418 31.6781L30.1632 37.0228L31.4053 43.3838L31.6688 35.028L31.1418 31.6781Z" fill="#E27625"/>
<path d="M36.9006 31.6781L36.3737 34.9903L36.6371 43.3838L37.8792 37.0228L36.9006 31.6781Z" fill="#E27625"/>
<path d="M37.8792 37.0229L36.6371 43.3839L37.5404 43.9861L43.0357 39.7329L43.2239 35.4797L37.8792 37.0229Z" fill="#F5841F"/>
<path d="M24.8561 35.4797L25.0066 39.7329L30.5019 43.9861L31.4053 43.3839L30.1632 37.0229L24.8561 35.4797Z" fill="#F5841F"/>
<path d="M37.9921 49.8202L38.0673 48.0888L37.578 47.7124H30.4643L30.0126 48.0888L30.0502 49.8202L24.1033 47.0349L26.1734 48.7287L30.389 51.6269H37.6157L41.8689 48.7287L43.939 47.0349L37.9921 49.8202Z" fill="#C0AD9E"/>
<path d="M37.5399 43.9863L36.6365 43.384H31.4047L30.5014 43.9863L30.0121 48.0889L30.4638 47.7125H37.5775L38.0668 48.0889L37.5399 43.9863Z" fill="#2F343B"/>
<path d="M56.4723 22.2684L58.0532 14.7029L55.6819 7.66443L37.5399 20.9134L44.5031 26.7474L54.3646 29.608L56.5476 27.0862L55.6066 26.4087L57.1122 25.0536L55.9454 24.188L57.451 23.0211L56.4723 22.2684Z" fill="#763E1A"/>
<path d="M9.98877 14.7029L11.5696 22.2684L10.5534 23.0211L12.0966 24.188L10.9297 25.0536L12.4353 26.4087L11.4943 27.0862L13.6774 29.608L23.5388 26.7474L30.502 20.9134L12.36 7.66443L9.98877 14.7029Z" fill="#763E1A"/>
<path d="M54.3647 29.608L44.5033 26.7474L47.4768 31.1888L43.0354 39.7329L48.9071 39.6576H57.677L54.3647 29.608Z" fill="#F5841F"/>
<path d="M23.5386 26.7474L13.6772 29.608L10.365 39.6576H19.1349L25.0066 39.7329L20.5652 31.1888L23.5386 26.7474Z" fill="#F5841F"/>
<path d="M36.9006 31.6782L37.5404 20.9134L40.401 13.2727H27.6414L30.5019 20.9134L31.1418 31.6782L31.3676 35.028L31.4053 43.3839H36.6371L36.6747 35.028L36.9006 31.6782Z" fill="#F5841F"/>
</svg>
