<svg width="44" height="44" viewBox="0 0 44 44" fill="none" xmlns="http://www.w3.org/2000/svg">
<rect width="44" height="44" rx="12" fill="#D547F9"/>
<mask id="mask0_124_38" style="mask-type:alpha" maskUnits="userSpaceOnUse" x="4" y="4" width="36" height="36">
<rect x="4" y="4" width="36" height="36" fill="#D9D9D9"/>
</mask>
<g mask="url(#mask0_124_38)">
<path d="M8.50026 34C7.67526 34 6.96901 33.7063 6.38151 33.1188C5.79401 32.5313 5.50026 31.825 5.50026 31C5.50026 30.175 5.79401 29.4688 6.38151 28.8813C6.96901 28.2938 7.67526 28 8.50026 28H8.89401C9.00651 28 9.12526 28.025 9.25026 28.075L16.0753 21.25C16.0253 21.125 16.0003 21.0063 16.0003 20.8938V20.5C16.0003 19.675 16.294 18.9688 16.8815 18.3813C17.469 17.7938 18.1753 17.5 19.0003 17.5C19.8253 17.5 20.5315 17.7938 21.119 18.3813C21.7065 18.9688 22.0003 19.675 22.0003 20.5C22.0003 20.55 21.9753 20.8 21.9253 21.25L25.7503 25.075C25.8753 25.025 25.994 25 26.1065 25H26.894C27.0065 25 27.1253 25.025 27.2503 25.075L32.5753 19.75C32.5253 19.625 32.5003 19.5063 32.5003 19.3938V19C32.5003 18.175 32.794 17.4688 33.3815 16.8813C33.969 16.2938 34.6753 16 35.5003 16C36.3253 16 37.0315 16.2938 37.619 16.8813C38.2065 17.4688 38.5003 18.175 38.5003 19C38.5003 19.825 38.2065 20.5313 37.619 21.1188C37.0315 21.7063 36.3253 22 35.5003 22H35.1065C34.994 22 34.8753 21.975 34.7503 21.925L29.4253 27.25C29.4753 27.375 29.5003 27.4938 29.5003 27.6063V28C29.5003 28.825 29.2065 29.5313 28.619 30.1188C28.0315 30.7063 27.3253 31 26.5003 31C25.6753 31 24.969 30.7063 24.3815 30.1188C23.794 29.5313 23.5003 28.825 23.5003 28V27.6063C23.5003 27.4938 23.5253 27.375 23.5753 27.25L19.7503 23.425C19.6253 23.475 19.5065 23.5 19.394 23.5H19.0003C18.9503 23.5 18.7003 23.475 18.2503 23.425L11.4253 30.25C11.4753 30.375 11.5003 30.4938 11.5003 30.6063V31C11.5003 31.825 11.2065 32.5313 10.619 33.1188C10.0315 33.7063 9.32526 34 8.50026 34ZM10.0003 18.9625L9.06276 16.9375L7.03776 16L9.06276 15.0625L10.0003 13.0375L10.9378 15.0625L12.9628 16L10.9378 16.9375L10.0003 18.9625ZM26.5003 17.5L25.0753 14.425L22.0003 13L25.0753 11.575L26.5003 8.5L27.9253 11.575L31.0003 13L27.9253 14.425L26.5003 17.5Z" fill="white"/>
</g>
</svg>
