<svg width="44" height="44" viewBox="0 0 44 44" fill="none" xmlns="http://www.w3.org/2000/svg">
<rect width="44" height="44" rx="12" fill="#E4386C"/>
<mask id="mask0_120_13" style="mask-type:alpha" maskUnits="userSpaceOnUse" x="4" y="4" width="36" height="36">
<rect x="4" y="4" width="36" height="36" fill="#D9D9D9"/>
</mask>
<g mask="url(#mask0_120_13)">
<path d="M32.275 18.1001L25.9 11.7251L28.0375 9.58756C28.6125 9.01256 29.3188 8.72506 30.1563 8.72506C30.9938 8.72506 31.7 9.01256 32.275 9.58756L34.4125 11.7251C34.9875 12.3001 35.275 13.0063 35.275 13.8438C35.275 14.6813 34.9875 15.3876 34.4125 15.9626L32.275 18.1001ZM8.5 35.5V29.125L15.25 22.3751L7.3375 14.3876L14.425 7.30006L22.375 15.2876L25.9 11.7251L32.275 18.1001L28.75 21.6251L36.6625 29.6125L29.6125 36.6625L21.625 28.7126L14.875 35.5H8.5ZM17.3875 20.2376L20.2375 17.3876L18.4375 15.5876L16.6375 17.3501L14.5375 15.2501L16.3 13.4501L14.3875 11.5751L11.575 14.4251L17.3875 20.2376ZM29.575 32.425L32.425 29.575L30.5125 27.7001L28.75 29.4626L26.6125 27.3626L28.4125 25.5626L26.575 23.7626L23.725 26.6126L29.575 32.425ZM11.5 32.5001H13.6L28.0375 18.1001L25.9 15.9626L11.5 30.4V32.5001Z" fill="white"/>
</g>
</svg>
