<svg width="853" height="895" viewBox="0 0 853 895" fill="none" xmlns="http://www.w3.org/2000/svg">
<g opacity="0.25">
<path d="M376.986 -20.4882C351.666 -86.3646 226.405 -118.896 247.076 12.2701C250.465 33.7768 250.806 70.8096 247.076 115.886C243.658 157.179 176.764 179.773 156.229 233.127C124.025 316.803 244.434 375.126 225.273 419.112C200.176 476.724 123.332 501.721 80.827 533.24C40.8134 562.912 15.3259 610.522 5.53971 659.47C-11.629 745.344 19.528 835.337 105.356 839.814C148.32 842.055 204.985 822.867 276.146 771.005C307.962 747.817 336.018 728.707 360.952 713.256C425.127 673.485 407.873 767.557 484.184 771.005C527.666 772.969 573.08 691.756 607.458 735.076C631.904 765.878 659.956 803.252 700.016 841.676C770.37 909.155 858.332 919.09 870.773 822.784C876.646 777.322 865.69 708.186 828.11 610.252C804.06 547.579 863.881 549.789 870.773 469.477C877.666 389.165 821.304 352.128 862.104 318.888L862.921 318.223C894.02 292.89 927.188 265.871 945.301 213.977C960.904 169.275 959.414 125 945.301 90.9799C930.198 54.5706 900.638 29.9058 862.104 29.0309C823.44 28.1531 775.741 51.2259 724.545 110.417C690.79 149.443 667.931 58.6358 607.458 67.9185C546.986 77.2011 538.58 164.818 502.353 139.406C439.424 95.2624 406.639 56.6646 376.986 -20.4882Z" stroke="url(#paint0_linear_48_370)" stroke-width="1.19883"/>
<path d="M499.134 338.852C495.28 328.739 477.323 331.394 476.414 342.354C475.379 354.833 481.687 371.095 480.958 383.604C479.55 407.756 471.018 414.631 454.029 427.36C447.939 431.915 444.06 439.224 442.571 446.739C439.958 459.922 444.7 473.737 457.762 474.425C464.3 474.769 472.924 471.823 483.753 463.861C488.595 460.301 492.865 457.368 496.66 454.996C513.178 443.843 528.552 452.582 534.174 458.345C537.895 463.074 542.164 468.812 548.26 474.71C558.967 485.07 575.181 483.712 574.247 471.81C572.928 454.996 544.22 392.232 574.247 381.288C588.195 376.204 587.737 364.689 585.589 359.466C583.291 353.877 578.792 350.09 572.928 349.956C567.044 349.821 557.296 359.466 551.993 362.45C532.417 373.465 514.95 379.159 499.134 338.852Z" stroke="url(#paint1_linear_48_370)" stroke-width="1.19883"/>
<path d="M268.019 40.9673C249.674 -78.4391 364.142 -48.6735 387.355 11.7183C415.775 85.5504 447.194 120.153 506.232 159.322C539.435 182.308 547.425 102.308 602.797 93.6124C658.168 84.9171 679.323 167.32 710.303 131.82C757.418 77.9791 801.228 57.3287 836.616 58.6317C871.775 59.6634 898.73 82.4814 912.348 115.983C925.065 147.312 926.115 187.968 911.284 228.868C891.927 277.484 863.974 307.744 835.585 332.486C798.504 363.266 849.439 397.262 842.688 470.379C835.936 543.496 780.895 541.283 802.29 597.836C835.93 686.406 845.51 748.79 839.827 789.725C828.252 877.086 747.74 867.72 683.126 806.19C646.074 771.095 619.825 737.145 596.832 709.624C565.206 670.425 523.497 744.579 483.493 743.113C413.568 740.336 428.824 654.993 370.039 691.329C346.958 705.54 321.087 722.985 291.841 744.066C225.905 791.189 173.916 807.401 135.061 804.172C57.036 799.759 28.809 717.548 44.6048 639.117C53.6834 594.282 77.1005 550.698 113.785 523.496C154.004 493.671 224.699 470.308 247.662 415.713C265.129 375.129 155.446 321.417 184.624 244.638C203.184 195.447 263.93 174.242 267.087 136.11C270.522 94.6042 270.641 60.604 268.019 40.9673Z" stroke="url(#paint2_linear_48_370)" stroke-width="1.19883"/>
<path d="M289.903 70.8736C273.91 -36.3819 377.418 -9.47975 398.49 45.2286C425.635 115.49 455.642 145.987 510.704 180.054C540.835 200.538 548.398 128.417 598.587 120.339C648.777 112.26 668.196 185.99 696.356 154.131C739.322 105.817 779.178 87.6558 811.239 89.3787C842.971 90.5632 867.282 111.459 879.395 141.943C890.698 170.476 891.305 207.379 877.267 244.343C856.853 289.064 834.581 322.439 809.177 346.312C775.87 374.529 821.303 405.372 814.703 471.054C808.103 536.737 757.921 534.528 776.63 584.777C806.279 663.693 814.469 719.122 808.986 755.397C798.293 833.527 725.349 824.761 666.568 769.382C632.58 737.731 608.172 707.318 586.664 683.167C557.838 648.217 519.894 715.068 483.427 714.104C419.989 712.005 433.225 635.672 379.916 668.454C358.723 681.377 335.073 697.1 308.439 716.005C247.825 758.235 200.587 771.419 165.899 767.216C95.7917 762.883 70.5361 688.723 84.9359 617.994C93.2937 577.419 114.606 538.004 147.908 513.363C185.783 485.331 250.225 463.68 271.021 412.285C286.769 375.237 187.971 326.313 214.081 256.685C230.64 211.819 285.148 192.074 288.039 157.229C291.174 119.431 291.753 88.5756 289.903 70.8736Z" stroke="url(#paint3_linear_48_370)" stroke-width="1.19883"/>
<path d="M310.841 99.5723C297.176 4.07641 389.883 28.213 408.847 77.4365C434.759 144.376 463.402 170.878 514.573 199.97C541.678 218.029 548.826 153.524 593.91 146.033C638.995 138.542 656.709 203.868 682.093 175.535C720.976 132.571 756.939 116.832 785.723 118.98C814.077 120.321 835.781 139.37 846.409 166.946C856.314 192.787 856.479 226.072 843.213 259.234C821.709 300.221 805.084 336.819 782.627 359.907C753.042 385.662 793.044 413.464 786.584 471.952C780.125 530.44 734.725 528.227 750.777 572.357C776.48 641.909 783.293 690.585 778 722.334C768.173 791.519 702.684 783.322 649.646 733.892C618.668 705.57 596.063 678.582 576.007 657.711C549.936 626.882 515.699 686.673 482.713 686.208C425.663 684.779 436.9 617.176 388.985 646.524C369.646 658.205 348.181 672.263 324.119 689.062C268.732 726.553 226.173 736.76 195.599 731.57C133.3 727.302 110.977 660.924 124.003 597.638C131.653 561.177 150.894 525.788 180.864 503.617C216.455 477.28 274.744 457.263 293.404 408.884C307.457 375.24 219.392 330.927 242.474 268.196C257.057 227.493 305.411 209.138 308.041 177.454C310.882 143.227 311.921 115.404 310.841 99.5723Z" stroke="url(#paint4_linear_48_370)" stroke-width="1.19883"/>
<path d="M332.713 128.27C321.401 44.5371 403.142 65.9076 419.965 109.645C444.599 173.268 471.827 195.773 519.016 219.888C543.048 235.519 549.768 178.633 589.668 171.729C629.568 164.825 645.545 221.745 668.107 196.938C702.838 159.326 734.846 146.011 760.301 148.585C785.227 150.083 804.286 167.285 813.408 191.954C821.899 215.102 821.621 244.768 809.15 274.127C786.594 311.381 775.646 351.214 756.175 373.518C730.366 396.813 764.864 421.574 758.557 472.865C752.25 524.155 711.712 521.938 725.078 559.946C746.79 620.131 752.213 662.051 747.12 689.271C738.176 749.507 680.259 741.879 633.058 698.4C605.145 673.407 584.383 649.845 565.814 632.258C542.544 605.551 512.075 658.281 482.627 658.315C432.068 657.557 441.286 598.686 398.849 624.599C381.399 635.039 362.157 647.432 340.709 662.124C290.648 694.874 252.843 702.101 226.436 695.921C172.058 691.718 152.707 633.123 164.336 577.282C171.265 544.935 188.4 513.574 214.985 493.873C248.229 469.229 300.261 450.846 316.753 405.481C329.086 375.239 251.911 335.537 271.923 279.706C284.505 243.166 326.619 226.2 328.983 197.677C331.524 167.021 333.022 142.231 332.713 128.27Z" stroke="url(#paint5_linear_48_370)" stroke-width="1.19883"/>
<path d="M354.578 158.318C345.617 86.5358 416.391 105.092 431.071 143.246C454.423 203.408 480.232 221.867 523.435 240.95C544.391 254.119 550.683 204.979 585.397 198.678C620.111 192.377 634.35 240.762 654.09 219.538C684.668 187.362 712.718 176.5 734.843 179.494C756.341 181.146 772.754 196.463 780.371 218.168C787.448 238.572 786.729 264.553 775.054 290.043C751.453 323.48 746.176 366.455 729.692 387.926C707.658 408.708 736.653 430.371 730.499 474.35C724.345 518.33 688.672 516.113 699.353 547.915C717.075 598.597 721.109 633.668 716.217 656.299C708.157 707.453 657.813 700.41 616.451 662.979C591.605 641.372 572.689 621.289 555.609 607.023C535.141 584.498 508.441 630.049 482.534 630.582C438.467 630.496 445.665 580.489 408.709 602.909C393.149 612.085 376.131 622.785 357.299 635.336C312.566 663.272 279.517 667.504 257.278 660.35C210.82 656.22 194.441 605.54 204.673 557.269C210.88 529.109 225.908 501.845 249.108 484.659C280 461.763 325.773 445.055 340.096 402.807C350.709 376.036 284.425 341.034 301.367 292.226C311.947 259.932 347.822 244.393 349.92 219.095C352.16 192.079 354.117 170.378 354.578 158.318Z" stroke="url(#paint6_linear_48_370)" stroke-width="1.19883"/>
<path d="M375.495 187.016C368.867 127.003 428.82 142.792 441.388 175.458C463.507 232.31 487.951 246.768 527.257 260.869C545.183 271.609 551.059 230.091 580.659 224.377C610.259 218.663 622.79 258.637 639.749 240.941C666.237 214.12 690.388 205.684 709.23 209.105C727.344 210.915 741.145 224.384 747.273 243.181C752.95 260.892 751.788 283.252 740.885 304.938C716.189 334.642 716.573 380.865 703.041 401.556C684.737 419.877 708.29 438.498 702.276 475.276C696.263 512.055 665.38 509.834 673.398 535.509C687.166 576.817 689.82 605.128 685.118 623.227C677.925 665.427 635.05 658.952 599.441 627.475C577.611 609.2 560.5 592.544 544.874 581.564C527.165 563.164 504.178 601.651 481.758 602.683C444.091 603.27 449.286 562.001 417.733 580.984C404.031 588.918 389.201 597.953 372.945 608.395C333.448 631.588 305.086 632.836 286.968 624.689C248.334 620.623 234.894 577.729 243.749 536.907C249.247 512.863 262.2 489.627 282.062 474.913C310.667 453.709 350.277 438.634 362.461 399.397C371.376 376.029 315.844 345.639 329.753 303.733C338.353 275.603 368.062 261.451 369.899 239.315C371.844 215.871 374.262 197.204 375.495 187.016Z" stroke="url(#paint7_linear_48_370)" stroke-width="1.19883"/>
<path d="M397.332 215.712C393.054 167.477 442.028 180.498 452.452 207.673C473.277 261.226 496.29 271.679 531.595 280.789C546.442 289.098 551.887 255.207 576.295 250.08C600.703 244.952 611.492 276.507 625.625 262.342C647.952 240.88 668.141 234.873 683.649 238.724C698.331 240.692 709.485 252.315 714.107 268.202C718.37 283.219 716.768 301.959 706.667 319.838C680.944 345.809 686.985 395.305 676.44 415.221C661.914 431.082 679.963 446.659 674.106 476.231C668.249 505.803 642.238 503.577 647.573 523.119C657.352 555.044 658.619 576.587 654.121 590.149C647.814 623.386 612.521 617.479 582.759 591.96C564.002 577.017 548.743 563.793 534.613 556.103C519.711 541.832 500.498 573.25 481.623 574.784C450.457 576.044 453.634 543.522 427.569 559.066C415.76 565.758 403.158 573.126 389.521 581.458C355.366 599.903 331.765 598.16 317.816 589.015C287.107 585.011 276.64 549.909 284.096 516.541C288.87 496.615 299.714 477.409 316.187 465.168C342.427 445.652 375.768 432.209 385.781 395.977C392.974 376.012 348.342 350.237 359.18 315.234C365.778 291.269 389.244 278.504 390.814 259.53C392.458 239.659 395.332 224.027 397.332 215.712Z" stroke="url(#paint8_linear_48_370)" stroke-width="1.19883"/>
<path d="M418.558 244.405C416.61 207.964 454.87 218.213 463.205 239.894C482.86 290.165 504.576 296.605 536.08 300.711C547.929 306.584 552.974 280.33 572.323 275.788C591.671 271.246 600.778 294.368 612.163 283.741C630.452 267.644 646.789 264.072 659.047 268.356C670.377 270.485 678.942 280.26 682.083 293.236C684.953 305.559 682.9 320.674 673.542 334.742C646.635 356.982 658.385 409.79 650.773 428.939C639.947 442.339 652.585 454.87 646.85 477.226C641.116 499.583 619.834 497.35 622.51 510.748C628.347 533.273 628.231 548.036 623.91 557.052C618.454 581.314 590.551 575.973 566.473 556.419C550.686 544.814 537.192 535.025 524.476 530.633C512.299 520.498 496.755 544.839 481.323 546.877C456.487 548.814 457.661 525.051 436.941 537.153L436.367 537.467C426.56 542.821 416.304 548.42 405.424 554.52C376.419 568.211 357.452 563.465 347.599 553.313C324.653 549.37 317.105 522.069 323.203 496.162C327.279 480.357 336.073 465.186 349.245 455.42C373.273 437.587 400.528 425.774 408.424 392.538C413.934 375.979 379.963 354.819 387.787 326.726C392.417 306.928 409.763 295.548 411.076 279.737C412.428 263.44 415.776 250.846 418.558 244.405Z" stroke="url(#paint9_linear_48_370)" stroke-width="1.19883"/>
<path d="M440.342 274.491C440.743 250.004 467.99 257.436 474.172 273.526C492.508 320.287 512.764 322.686 540.229 321.773C548.988 325.185 553.596 306.682 567.734 302.747C581.872 298.811 589.228 313.401 597.775 306.356C611.886 295.696 624.244 294.573 633.157 299.271C641.045 301.55 646.955 309.435 648.589 319.442C650.043 329.014 647.555 340.438 639.01 350.634C611.117 369.044 628.497 424.92 623.877 443.216C616.837 454.095 623.964 463.524 618.393 478.567C612.823 493.61 596.435 491.38 596.429 498.577C598.277 511.604 596.776 519.523 592.664 523.954C588.1 539.135 567.805 534.384 549.598 520.881C536.902 512.664 525.275 506.354 514.07 505.278C504.712 499.324 492.957 516.48 481.086 519.013C462.775 521.618 461.934 506.718 446.72 515.324C438.644 519.506 430.439 523.51 421.976 527.589C398.344 536.466 384.157 528.74 378.48 517.629C363.477 513.764 358.908 494.383 363.599 476.052C366.948 464.439 373.623 453.369 383.393 446.122C405.026 430.053 425.986 419.924 431.703 389.833C435.487 376.753 412.443 360.303 417.191 339.244C419.816 323.701 430.906 313.756 431.951 301.178C433.001 288.529 436.798 279.028 440.342 274.491Z" stroke="url(#paint10_linear_48_370)" stroke-width="1.19883"/>
<path d="M462.45 303.224C465.188 290.605 481.509 295.244 485.556 305.792C502.602 349.15 521.431 347.525 544.91 341.607C550.605 342.572 554.783 331.759 563.754 328.42C572.725 325.081 578.347 331.193 584.081 327.705C594.051 322.445 602.464 323.762 608.06 328.881C612.533 331.315 615.808 337.331 615.945 344.399C615.991 351.249 613.066 359.016 605.32 365.372C576.411 379.999 599.414 439.049 597.767 456.531C594.487 464.919 596.137 471.275 590.724 479.057C585.311 486.838 573.772 484.608 571.097 485.636C568.975 489.221 566.096 490.333 562.186 490.203C558.506 496.36 545.756 492.188 533.369 484.69C523.732 479.834 513.949 476.981 504.234 479.208C497.669 477.409 489.672 487.437 481.33 490.469C469.487 493.745 466.64 487.651 456.887 492.789C450.696 495.716 444.709 498.04 438.854 499.993C420.539 504.089 411.091 493.376 409.562 481.286C402.446 477.491 400.835 465.968 404.134 455.152C406.762 447.694 411.338 440.691 417.733 435.94C437.011 421.597 451.731 413.125 455.287 386.11C457.357 376.472 445.16 364.684 446.853 350.594C447.486 339.261 452.363 330.728 453.142 321.348C453.893 312.309 458.143 305.873 462.45 303.224Z" stroke="url(#paint11_linear_48_370)" stroke-width="1.19883"/>
</g>
<defs>
<linearGradient id="paint0_linear_48_370" x1="1" y1="-78" x2="972.558" y2="877.316" gradientUnits="userSpaceOnUse">
<stop stop-color="#3C38E4"/>
<stop offset="1" stop-color="#E438B4"/>
</linearGradient>
<linearGradient id="paint1_linear_48_370" x1="441.88" y1="332.534" x2="590.967" y2="477.314" gradientUnits="userSpaceOnUse">
<stop stop-color="#3C38E4"/>
<stop offset="1" stop-color="#E438B4"/>
</linearGradient>
<linearGradient id="paint2_linear_48_370" x1="40.3868" y1="-41.0817" x2="935.194" y2="840.582" gradientUnits="userSpaceOnUse">
<stop stop-color="#3C38E4"/>
<stop offset="1" stop-color="#E438B4"/>
</linearGradient>
<linearGradient id="paint3_linear_48_370" x1="81.0448" y1="-2.68628" x2="896.163" y2="804.068" gradientUnits="userSpaceOnUse">
<stop stop-color="#3C38E4"/>
<stop offset="1" stop-color="#E438B4"/>
</linearGradient>
<linearGradient id="paint4_linear_48_370" x1="120.432" y1="34.2321" x2="858.783" y2="767.319" gradientUnits="userSpaceOnUse">
<stop stop-color="#3C38E4"/>
<stop offset="1" stop-color="#E438B4"/>
</linearGradient>
<linearGradient id="paint5_linear_48_370" x1="161.089" y1="71.1506" x2="822.66" y2="729.285" gradientUnits="userSpaceOnUse">
<stop stop-color="#3C38E4"/>
<stop offset="1" stop-color="#E438B4"/>
</linearGradient>
<linearGradient id="paint6_linear_48_370" x1="201.747" y1="109.546" x2="785.059" y2="692.727" gradientUnits="userSpaceOnUse">
<stop stop-color="#3C38E4"/>
<stop offset="1" stop-color="#E438B4"/>
</linearGradient>
<linearGradient id="paint7_linear_48_370" x1="241.133" y1="146.464" x2="747.647" y2="655.945" gradientUnits="userSpaceOnUse">
<stop stop-color="#3C38E4"/>
<stop offset="1" stop-color="#E438B4"/>
</linearGradient>
<linearGradient id="paint8_linear_48_370" x1="281.791" y1="183.383" x2="711.496" y2="617.883" gradientUnits="userSpaceOnUse">
<stop stop-color="#3C38E4"/>
<stop offset="1" stop-color="#E438B4"/>
</linearGradient>
<linearGradient id="paint9_linear_48_370" x1="321.178" y1="220.301" x2="674.003" y2="582.288" gradientUnits="userSpaceOnUse">
<stop stop-color="#3C38E4"/>
<stop offset="1" stop-color="#E438B4"/>
</linearGradient>
<linearGradient id="paint10_linear_48_370" x1="361.835" y1="258.697" x2="636.239" y2="545.558" gradientUnits="userSpaceOnUse">
<stop stop-color="#3C38E4"/>
<stop offset="1" stop-color="#E438B4"/>
</linearGradient>
<linearGradient id="paint11_linear_48_370" x1="402.493" y1="295.615" x2="607.604" y2="508.904" gradientUnits="userSpaceOnUse">
<stop stop-color="#3C38E4"/>
<stop offset="1" stop-color="#E438B4"/>
</linearGradient>
</defs>
</svg>
