<svg width="390" height="60" viewBox="0 0 390 60" fill="none" xmlns="http://www.w3.org/2000/svg">
<mask id="mask0_2007_1950" style="mask-type:luminance" maskUnits="userSpaceOnUse" x="0" y="0" width="223" height="60">
<path d="M222.857 0H0V60H222.857V0Z" fill="white"/>
</mask>
<g mask="url(#mask0_2007_1950)">
<path d="M0 8.66714L26.7834 0V60C7.65214 51.9993 0 36.6661 0 28.0007V8.66714Z" fill="#0500FF"/>
<path d="M53.5684 8.66714L26.785 0V60C45.9163 51.9993 53.5684 36.6661 53.5684 28.0007V8.66714Z" fill="url(#paint0_linear_2007_1950)"/>
<path d="M100.603 14.1536H111.226V20.0776C114.706 14.7536 118.711 14.1536 124.573 14.1536V24.6225H121.903C114.878 24.6225 111.515 27.914 111.515 34.4342V45.5621H100.603V14.1536Z" fill="#0500FF"/>
<path d="M160.015 45.5602H149.105V42.566C146.723 45.3184 143.476 46.5147 139.473 46.5147C131.871 46.5147 127.573 42.0269 127.573 33.7733V14.1517H138.483V31.3236C138.483 35.2095 140.398 37.482 143.647 37.482C146.895 37.482 149.104 35.2667 149.104 31.5008V14.1517H160.014V45.5602H160.015Z" fill="#0500FF"/>
<path d="M162.682 35.865H172.9C173.366 38.1375 174.932 39.0938 178.702 39.0938C181.78 39.0938 183.579 38.3775 183.579 37.0613C183.579 36.0423 182.707 35.3832 180.215 34.846L171.974 32.9908C166.459 31.7373 163.672 28.5658 163.672 23.4781C163.672 16.7751 168.604 13.3064 178.181 13.3064C187.758 13.3064 192.458 16.6865 193.274 23.9285H183.119C182.946 22.016 180.969 20.8456 177.721 20.8456C175.111 20.8456 173.431 21.6819 173.431 22.9409C173.431 24.0171 174.53 24.8534 176.74 25.3961L185.386 27.4914C191.073 28.8648 193.804 31.7391 193.804 36.404C193.804 42.867 188.173 46.6958 178.602 46.6958C169.031 46.6958 162.699 42.568 162.699 35.865H162.688H162.682Z" fill="#0500FF"/>
<path d="M222.857 23.9209V14.1517H195.927V23.9265H203.964V45.5602H214.818V23.9209H222.857Z" fill="#0500FF"/>
<path d="M97.5661 23.9209V14.1517H70.6383V23.9265H78.6739V45.5602H89.5304V23.9209H97.5661Z" fill="#0500FF"/>
</g>
<path d="M239.279 44.9999L230.898 14.3506H234.669L241.074 39.3131H241.374L247.899 14.3506H252.089L258.614 39.3131H258.914L265.319 14.3506H269.09L260.709 44.9999H256.878L250.114 20.5762H249.874L243.11 44.9999H239.279ZM271.32 44.9999H267.429L278.683 14.3506H282.514L293.769 44.9999H289.877L286.794 36.3199H274.403L271.32 44.9999ZM275.57 33.0275H285.627L280.719 19.1994H280.479L275.57 33.0275ZM297.278 44.9999V14.3506H300.989V41.7075H315.236V44.9999H297.278ZM319.719 44.9999V14.3506H323.431V41.7075H337.678V44.9999H319.719ZM342.16 44.9999V14.3506H360.658V17.643H345.871V27.9992H359.7V31.2915H345.871V41.7075H360.897V44.9999H342.16ZM364.406 17.643V14.3506H387.394V17.643H377.756V44.9999H374.044V17.643H364.406Z" fill="#0500FF"/>
<defs>
<linearGradient id="paint0_linear_2007_1950" x1="46.454" y1="-4.20159" x2="26.384" y2="59.2312" gradientUnits="userSpaceOnUse">
<stop offset="0.02" stop-color="#0000FF"/>
<stop offset="0.08" stop-color="#0094FF"/>
<stop offset="0.16" stop-color="#48FF91"/>
<stop offset="0.42" stop-color="#0094FF"/>
<stop offset="0.68" stop-color="#0038FF"/>
<stop offset="0.9" stop-color="#0500FF"/>
</linearGradient>
</defs>
</svg>
